<?xml version="1.0" encoding="utf-8"?>
<!-- Generator: Adobe Illustrator 17.1.0, SVG Export Plug-In . SVG Version: 6.00 Build 0)  -->
<!DOCTYPE svg PUBLIC "-//W3C//DTD SVG 1.1//EN" "http://www.w3.org/Graphics/SVG/1.1/DTD/svg11.dtd">
<svg version="1.1" id="Layer_1" xmlns="http://www.w3.org/2000/svg" xmlns:xlink="http://www.w3.org/1999/xlink" x="0px" y="0px"
	 viewBox="0 0 329.764 330.549" enable-background="new 0 0 329.764 330.549" xml:space="preserve">
<path opacity="0.65" fill="#176635" d="M46.838,283.697c1.402-2.136,2.805-0.61,4.208-1.556c1.402-0.93,2.805,1.674,4.207,1.082
	c1.401,1.69,2.804-0.32,4.206,0.842c1.402-0.352,2.805,0.818,4.207-1.316c1.403,1.887,2.805-0.907,4.207,1.449
	c1.402,1.093,2.805-3.155,4.207-1.922c1.403-2.341,2.806-3.898,4.207-1.853c1.402-2.088,2.805-1.588,4.207,1.379
	c0.308,2.903,0.614,5.468,0.922,4.085c0.307,2.048,0.613,1.005,0.921,2.9c0.308,0.644,0.614-0.67,0.922,3.229
	c0.307,2.148,0.614,4.33,0.921,3.756c0.272,1.476,0.545,1.065,0.818,2.52c0.273,1.86,0.546,6.767,0.818,3.689
	c0.273,2.676,0.547,4.004,0.819,2.896c0.272-1.146,0.546-0.479,0.819,3.312c0.272-0.082,0.545,4.438,0.818,3.104
	c0.274,1.118,0.546,0.376,0.818,3.104c1.123-1.285,2.245-0.994,3.367-1.308c1.123,0.366,2.245-4.025,3.366-1.309
	c1.123-1.347,2.245,1.957,3.367-1.308c1.123-1.73,2.245,1.051,3.367-1.308c1.123-5.018,2.245-1.618,3.367-1.814
	c1.123-2.646,2.245,0.346,3.367-0.801c1.123-0.543,2.244,0.206,3.366-1.411c1.123,0.303,2.245-2.827,3.367-1.205
	c1.497-1.585,2.993-4.826,4.489-1.741c0.761-2.09,1.521,3.473,2.281,3.843c0.761,3.613,1.52,1.838,2.281,3.243
	c0.761,1.406,1.521,2.49,2.281,3.358c0.761,0.629,1.521,3.3,2.281,3.727c0.761,2.609,1.521,2.38,2.281,3.544
	c0.761,0.642,1.521,3.325,2.282,3.542c0.76,1.284,1.521,2.984,2.281,3.543c0.76,0.679,1.52,2.552,2.281,3.543
	c1.244-1.241,2.487-1.325,3.73-3.045c1.244-0.58,2.488-3.258,3.731-3.045c1.035-2.139,2.072-3.376,3.108-4.098
	c1.036,1.137,2.072,0.734,3.108-0.978c1.036,0.772,2.072-2.768,3.108-3.79c1.037-4.08,2.073-4.57,3.108-1.285
	c1.036,0.531,2.072-0.864,3.109-1.771c1.036-2.066,2.071-1.557,3.109-3.306c1.035-0.591,2.071,3.084,3.107,3.503
	c1.037,0.715,2.073,3.29,3.11,1.573c1.035-2.152,2.071-0.249,3.107-0.153c0.52,3.292,1.037,1.803,1.555,3.094
	c0.519,2.207,1.036,1.89,1.556,2.135c1.036,0.077,2.071,0.396,3.107,2.356c1.037,0.535,2.073,4.385,3.11,2.719
	c1.242,3.651,2.486,5.104,3.729,3.045c1.244,5.44,2.486-3.317,3.731,3.045c0.76,0.254,1.52-3.509,2.28-3.147
	c0.762-1.693,1.521-1.928,2.28-3.939c0.762,0.037,1.522-5.83,2.284-3.714c0.76,0.358,1.52-1.355,2.28-3.372
	c0.762,2.931,1.52-1.337,2.28-3.052c0.762-0.518,1.523-3.35,2.282-4.033c0.76-1.801,1.521-3.867,2.282-4.421
	c0.76-3.492,1.52,3.242,2.28-2.665c0.75-0.883,1.496-0.248,2.245-2.096c0.748-2.582,1.496-2.755,2.245,3.837
	c1.121,0.99,2.243,3.908,3.365,1.348c1.123-1.37,2.245,3.68,3.367,1.269c1.122,2.705,2.245-0.438,3.366,0.824
	c1.122,3.979,2.244,1.454,3.367,1.791c1.122-0.292,2.244-0.343,3.367,0.895c1.122,0.548,2.244,1.234,3.367,1.721
	c2.243,1.855,4.487,2.792,6.732,2.616c0.273-0.285,0.546-1.379,0.819-2.631c0.271-2.23,0.545-2.867,0.818-3.578
	c0.272-1.406,0.546-1.704,0.819-3.625c0.271-1.184,0.544-3.113,0.817-2.584c0.273,1.338,0.547,2.351,0.819-3.107
	c0.271,2.909,0.545-2.761,0.818-3.102c0.308-1.213,0.614-1.909,0.921-3.382c0.308,1.819,0.613-3.576,0.921-3.602
	c0.308-2.71,0.614-5.495,0.922-4.212c0.308-6.997,0.615-0.619,0.921-2.773c1.403,0.646,2.805,3.901,4.208-0.1
	c1.402,2.806,2.806,3.704,4.207,0.573c1.401,1.5,2.805-2.821,4.208,0.198c1.401-3.656,2.804,0.393,4.205,0.274
	c1.403-3.04,2.807,6.607,4.208-0.266c1.403,0.63,2.805,3.748,4.207,0.74c1.403-1.444,2.807-0.843,4.208,0.189
	c1.402-4.067,2.805,3.511,4.207,0.285c-0.079,0.523-0.158-5.451-0.237-4.03c-0.079-3.668-0.156-6.244-0.235-4.384
	c-0.079-2.528-0.158,0.078-0.237-4.614c-0.079-0.104-0.157-2.881-0.236-3.799c-0.079,0.48-0.158,1.232-0.237-4.09
	c-0.079-1.482-0.158-0.831-0.237-4.323c-0.079,1.555-0.158-2.26-0.237-4.208c-0.077-0.407-0.156-1.712-0.235-4.207
	c1.165-2.597,2.329,4.624,3.494-0.921c1.164-2.813,2.328-3.313,3.492-0.921c1.164-2.243,2.328,0.124,3.492-1.067
	c1.164-5.112,2.329,1.366,3.494-0.774c1.034,2.492,2.068-0.661,3.104-0.13c1.034-4.245,2.068-1.77,3.104-1.509
	c1.034-1.012,2.068,2.161,3.104-0.889c1.034,3.768,2.068-3.222,3.103-0.749c1.034-0.786,2.068,4.141,3.104-1.526
	c1.034,0.286,2.068,1.594,3.103-0.11c-0.435-3.409-0.871-5.621-1.307-3.137c-0.436-3.992-0.873,0.788-1.31-3.598
	c-0.435-4.524-0.871-3.609-1.308-2.959c-0.436-0.784-0.871-7.122-1.307-3.775c-0.437-2.893-0.872-2.705-1.308-2.878
	c-0.437-3.611-0.872,1.359-1.308-3.857c-0.438,2.925-0.873-1.794-1.309-3.367c-0.436,1.428-0.872-2.429-1.308-3.367
	c-0.581,0.651-1.161-3.809-1.742-4.486c1.181,2.94,2.363-3.246,3.543-2.281c1.181-1.107,2.361-2.691,3.542-2.281
	c1.183,1.806,2.363,0.637,3.544-2.281c1.182-3.836,2.362-3.57,3.543-2.281c1.182-0.333,2.362,1.228,3.543-1.944
	c1.181,0.093,2.361,0.614,3.543-2.618c1.181-0.698,2.361,1.936,3.544-2.674c1.181-1.819,2.361-0.862,3.542-1.888
	c-1.017-1.357-2.031-2.175-3.047-3.732c-1.015,0.493-2.029-1.359-3.046-3.732c-0.847-5.761-1.691-4.819-2.537-3.109
	c-0.847,0.624-1.691-2.941-2.538-3.107c-1.69-4.074-3.383-2.626-5.074-6.218c-1.691-6.012-3.382-4.335-5.074-6.217
	c0.846,5.973,1.692-5.742,2.538-3.109c0.845-2.334,1.691-3.91,2.538-3.109c0.845-3.156,1.69-5.365,2.537-3.109
	c0.846,0.246,1.692-2.493,2.537-3.108c0.847-0.764,1.692,3.982,2.537-3.683c0.847-5.942,1.692-1.567,2.539-2.536
	c0.508-0.96,1.015-3.783,1.522-1.64c0.507,5.903,1.015-3.887,1.522-2.09c0.507,0.738,1.015,2.611,1.522,1.289
	c0.507,0.52,1.015-3.37,1.523-5.02c-1.181,5.591-2.361-0.231-3.542,0.664c-1.183-1.149-2.363-2.507-3.544-5.226
	c-1.182,1.954-2.362-3.426-3.543-2.343c-1.181,2.024-2.361,1.804-3.543-2.22c-1.181-4.975-2.361-1.23-3.543-2.462
	c-1.181-2.769-2.361-2.544-3.542-2.101c-1.181-1.066-2.363-4.032-3.544-2.729c-1.18-2.755-2.362-0.545-3.543-1.832
	c0.582-6.055,1.163-1.101,1.745-4.491c0.871-0.693,1.743-2.428,2.614-6.733c0.872-3.52,1.744-2.242,2.615-6.733
	c0.872-2.81,1.743-8.524,2.615-6.734c0.871-4.088,1.743-5.447,2.614-6.733c-2.069-1.313-4.139-2.54-6.208-1.637
	c-2.069,0.943-4.14-0.867-6.208-1.639c-2.07,1.164-4.139,2.886-6.209-1.637c-2.328,1.117-4.656,0.369-6.985-1.843
	c-2.328,1.979-4.656-1.774-6.984-1.843c0.158-2.994,0.314-0.174,0.473-8.414c0.158-5.105,0.316-3.352,0.475-8.413
	c0.157-5.272,0.315-10.064,0.474-8.414c0.156-6.113,0.314-7.853,0.473-8.414c-2.805,3.177-5.608,3.391-8.415,0.474
	c-2.804-2.697-5.608,4.906-8.413,0.474c-2.806-0.143-5.61,1.79-8.415,0.474c-1.401-1.654-2.805-2.64-4.207-2.66
	c-1.403-0.021-2.807,0.926-4.208,3.135c-0.613-0.79-1.229-6.168-1.842-6.984c-0.614-2.732-1.229-3.752-1.843-6.984
	c-0.547-6.696-1.091-4.771-1.638-6.209c-0.546-2.012-1.091-1.975-1.637-6.208c-0.547-5.867-1.092-5.905-1.638-6.209
	c-2.245,0.688-4.489,3.882-6.732,2.613c-2.245-0.332-4.49,0.637-6.734,2.615c-2.245,1.2-4.488,5.819-6.733,2.615
	c-2.243-3.657-4.488,0.811-6.732,2.614c-1.496,0.324-2.994,7.074-4.49,1.744c-1.521-5.243-3.041-0.497-4.562-7.085
	c-1.521-6.899-3.042-6.931-4.562-7.086c-1.521-4.477-3.042-0.38-4.564-7.086c-1.519-4.323-3.041-9.936-4.561-7.085
	c-1.245,3.419-2.487-0.041-3.731,3.045c-1.242-0.552-2.486,0.851-3.729,3.044c-2.073-2.084-4.146,6.744-6.218,5.076
	c-2.075,2.653-4.146,7.706-6.218,5.075c-2.073,4.542-4.146,3.141-6.218,5.075c-2.073,4.516-4.146,0.585-6.219-5.075
	c-2.071-6.496-4.145-3.433-6.217-5.075c-2.072,4.33-4.144-8.706-6.217-5.076c-1.243-6.835-2.487,2.168-3.731-3.044
	c-1.243,4.786-2.486,6.006-3.73-3.045c-1.521,5.635-3.042,0.601-4.562,7.085c-1.521,2.285-3.042,5.467-4.563,7.086
	c-1.521,2.978-3.041-4.955-4.563,7.086c-1.521,6.513-3.042,8.651-4.562,7.085c-1.496-4.741-2.992,0.229-4.489-1.744
	c-2.244,0.104-4.489-4.269-6.733-2.614c-2.244-1.993-4.489-7.815-6.734-2.615c-2.244-2.672-4.489,0.12-6.734-2.615
	c-2.243-0.608-4.488-0.307-6.733-2.613c-0.545,1.373-1.092,5.192-1.637,6.208c-0.547,3.885-1.092,6.266-1.639,6.208
	c-0.545-6.046-1.092,1.762-1.637,6.208c-0.614,4.884-1.229-1.874-1.843,6.985c-0.614,2.567-1.229-0.498-1.843,6.985
	c-2.805-2.975-5.608,0.737-8.414-0.475c-2.805-0.281-5.609-1.146-8.413-0.474c-2.806-2.756-5.61,2.088-8.414-0.474
	c-2.805-1.364-5.61-1.452-8.415-0.474c0.158,4.713,0.316,7.737,0.475,8.414c0.158,2.008,0.315,3.244,0.474,8.414
	c0.158,3.634,0.316,3.398,0.474,8.413c0.158,5.545,0.315,9.721,0.474,8.414c-2.328-3.128-4.656-0.718-6.984,1.843
	c-2.328,3.368-4.657,3.966-6.985,1.843c-2.069,2.679-4.139,0.601-6.208,1.637c-2.069,0.691-4.139-0.056-6.208,1.639
	c-2.069,0.972-4.139,0.755-6.209,1.637c0.872,2.622,1.744,4.098,2.614,6.733c0.437,2.662,0.872,0.034,1.308,3.648
	c0.437-2.224,0.872,2.467,1.308,3.086c0.435,0.854,0.872,7.332,1.308,3.159c0.435,0.878,0.871-1.271,1.308,3.574
	c0.436-2.882,0.871,2.029,1.307,2.403c0.436-2.195,0.871,2.753,1.308,4.33c0.581,1.998,1.162,6.598,1.744,4.491
	c-1.181,1.48-2.362,2.312-3.543,2.857c-1.181,3.42-2.362-0.323-3.543,1.704c-1.18-0.64-2.361-1.507-3.542,0.205
	c-1.182-0.757-2.362,2.341-3.543,4.357c-1.181-5.414-2.362-0.579-3.543,2.157c-1.182,0.381-2.362,4.406-3.543,2.405
	c-1.181,1.456-2.361,6.495-3.543,4.148c-1.181-1.078-2.361,2.939-3.542,0.413c1.015,3.556,2.029,4.769,3.044,3.73
	c0.508-3.186,1.016-2.028,1.522-0.199c0.508,1.649,1.016-0.466,1.523,3.931c0.847,1.377,1.692-4.752,2.538,1.613
	c0.846-4.643,1.692,5.104,2.537,4.605c0.847,2.74,1.692,2.323,2.538,4.946c0.845-2.798,1.691,0.956,2.537,1.271
	c0.846-2.465,1.691,1.292,2.538,1.28c0.846-0.124,1.691,3.047,2.537,4.938c-0.847-0.346-1.691-2.256-2.537,2.26
	c-0.847-3.82-1.692,5.178-2.538,3.958c-0.846-2.599-1.692-1.48-2.537,1.887c-0.846-0.203-1.692,3.989-2.538,4.33
	c-0.845,1.815-1.691,1.048-2.537,3.113c-0.846,2.862-1.692,5.983-2.538,3.105c-0.507-2.362-1.015,2.337-1.523-0.551
	c-0.507,0.342-1.015,2.439-1.522,4.281c-1.015,1.549-2.029,3.582-3.044,3.731c1.181,1.73,2.361-0.823,3.542,0.81
	c1.182,2.92,2.362,2.998,3.543,3.752c1.181,1.669,2.361-2.172,3.543,1.017c1.181-0.22,2.362-1.205,3.543,3.546
	c1.181,2.717,2.361,6.318,3.543,2.779c1.181,6.075,2.362,0.119,3.542,1.783c1.182,1.379,2.362,3.393,3.543,2.423
	c1.181-3.046,2.362-1.011,3.543,2.14c-0.582,2.693-1.163-2.021-1.744,4.488c-0.437,3.705-0.872,1.724-1.308,4.024
	c-0.435,4.395-0.871,10.714-1.307,2.71c-0.436,4.707-0.872-2.159-1.308,2.18c-0.436,2.823-0.872,4.921-1.308,4.554
	c-0.436,1.969-0.871,4.582-1.308,3.164c-0.435,2.755-0.871-0.445-1.308,3.57c-0.435,1.51-0.87-2.11-1.307,3.304
	c-0.436-2.785-0.871-0.707-1.308,3.431c1.035-1.436,2.07-3.485,3.104-0.257c1.035,2.271,2.07,2.003,3.104,1.893
	c1.035,3.949,2.069-1.754,3.103,0.518c1.035,7.045,2.069,2.846,3.104,1.12c1.035-3.477,2.069,0.046,3.104,0.328
	c1.035-0.099,2.069-3.475,3.104,1.311c1.164,2.91,2.328-0.92,3.492,1.666c1.165,1.316,2.329,4.569,3.493,0.176
	c1.164-2.935,2.328-0.864,3.492,0.899c1.164-6.024,2.328,1.975,3.492,0.942c-0.079,8.738-0.158-7.308-0.236,3.447
	c-0.079-4.218-0.158-7.489-0.237,4.968c-0.079,1.943-0.158-5.887-0.236,3.311c-0.079,3.761-0.158-1.141-0.237,5.102
	c-0.079,5.039-0.158,5.483-0.237,5.423c-0.078,1.026-0.157,1.272-0.236,2.99c-0.079,2.615-0.158,3.214-0.237,6.29
	C46.996,284.022,46.917,284.302,46.838,283.697z"/>
</svg>
