<?xml version="1.0" encoding="utf-8"?>
<!-- Generator: Adobe Illustrator 17.1.0, SVG Export Plug-In . SVG Version: 6.00 Build 0)  -->
<!DOCTYPE svg PUBLIC "-//W3C//DTD SVG 1.1//EN" "http://www.w3.org/Graphics/SVG/1.1/DTD/svg11.dtd">
<svg version="1.1" id="Layer_1" xmlns="http://www.w3.org/2000/svg" xmlns:xlink="http://www.w3.org/1999/xlink" x="0px" y="0px"
	 viewBox="0 0 271.223 271.066" enable-background="new 0 0 271.223 271.066" xml:space="preserve">
<path opacity="0.65" fill="#BCA833" d="M37.542,232.104c-2.837-2.865,2.368,0.613,7.688,4.439c-5.963,4.574,6.646,4.463,7.688,4.439
	c-1.844,2.84,10.652,4.393,7.689,4.438c8.323,5.316,5.48,6.555,7.689,4.439c7.298-5.488,1.914-2.148,7.688,4.439
	c7.063-5.35,4.382,9.664,7.688,4.439c4.787-0.141,3.972-1.674,7.688,4.438c7.339,7.492,11.1-4.145,7.688,4.439
	c6.41,4.596,8.234,4.605,8.878,0c2.51,0.781,13.229-3.066,8.878,0c4.412,0.59,9.682,2.498,8.878,0c3.316-0.408,2.555,3.762,8.878,0
	c6.999,2.197,6.306-1.295,8.878,0c8.219-4.336,1.216,1.496,8.877,0c0.123,0.447,2.939-3.387,8.877-0.002
	c0.807-2.934,9.428-1.123,8.879,0.002c-3.623,0.582-3.184-7.475,7.689-4.439c0.082-0.926,4.02-0.799,7.688-4.439
	c0.037,4.252,8.186,0.115,7.688-4.439c3.492-13.346,0.545,0.562,7.688-4.438c2.52-2.053,2.85,0.393,7.688-4.439
	c3.645,0.24,5.174-3.398,7.689-4.438c2.232-0.916,6.6-1.475,7.689-4.439c0.805-1.521,4.695,0.432,7.688-4.439
	c6.803,0.232,7.76-5.609,4.439-7.689c0.135-5.092,1.031-7.213,4.438-7.688c-6.238-1.303,5.523,0.461,4.439-7.688
	c4.131-3.859,4.344,3.779,4.439-7.688c-1.332,4.432,3.662-5.75,4.439-7.69c2.072-1.189,0-6.787,4.438-7.689
	c5.193,3.951,1.934-3.793,4.438-7.688c1.234-4.18,7.176-2.012,4.44-7.688c-4.482,6.131,6.143-8.404,0-8.878
	c1.978-4.386-5.832,0.243,0-8.878c-1.668-4.007-5.467-1.213,0-8.878c1.781-3.384-3.076-5.05,0-8.878c6.35-1.076,4.615-2.406,0-8.878
	c1.109-0.986-5.74-5.713,0-8.877c-1.143-7.028,1.477-5.305,0-8.877c-0.428-3.258,3.309-6.437,0-8.878
	c2.039-4.325-4.836-4.181-4.44-7.688c-1.83-3.478-3.568-5.253-4.439-7.688c-4.775-10.206-2.254-4.231-4.439-7.688
	c3.633,0.35,5.275-8.31-4.438-7.688c-0.863-2.379-5.111-0.88-4.439-7.688c0.891-9.744-0.643-1.386-4.438-7.688
	c-3.373-7.803-6.002,0.724-4.439-7.689c-2.18-3.367-1.963-2.566-4.438-7.688c2.658-0.488-1.164-1.329-7.688-4.438
	c-3.246-3.306-4.889-1.229-7.689-4.439c-0.781-1.564-11.715-1.534-7.689-4.438c0.047-0.102,1.732-6.91-7.688-4.438
	c2.219-4.145-3.215-7.243-7.688-4.439c-7.43-15.346-7.691-8.743-7.688-4.439c-8.961,4.138-8.727-6.05-7.689-4.439
	c-0.072-2.373-4.328-7.906-7.688-4.439c-2.512,1.792-2.732,4.246-8.879,0c-1.621,0.496-4.893,0.804-8.877,0
	c-3.547,0.09-6.208-0.356-8.877,0c-3.184,1.884-16.434,13.623-8.878,0c-12.807,4.144-12.132,1.844-8.877,0
	c1.716-2.936-5.952-3.86-8.878,0c0.691-6.944-14.546,16.863-8.878,0c0.434-4.153-6.35,1.013-8.878,0
	c-7.825,5.533,4.479,7.661-7.688,4.438c-4.196-1.782,0.806,0.801-7.688,4.438c-0.709,2.181-10.633-1.364-7.688,4.438
	c4.305-2.104-6.219-0.459-7.688,4.439c-5.015-3.882-8.295,2.431-7.689,4.438c-6.206,0.105-10.006-3.298-7.689,4.438
	c-3.997-3.864-3.781-1.995-7.688,4.44c6.169,1.34-8.58,7.384-7.688,4.438c1.307,6.202,5.768,3.53-4.438,7.688
	c-2.896-0.323,2.145,0.969-4.44,7.689c-6.755-6.729-0.285-2.441-4.438,7.688c-11.732,10.064-1.182,4.89-4.438,7.688
	c-6.894,0.834,2.4,1.19-4.439,7.688c-5.36-4.261,7.302-0.905-4.438,7.689c-3.509-6.796-12.969-1.676-4.439,7.687
	c2.947-0.994-2.56-1.927-4.438,7.689c2.62,0.49-5.359,1.445,0,8.877c-1.65-1.834,10.822,11.04,0,8.877
	c5.545,6.237-6.625,6.832,0,8.878c-4.928-8.642,0.754,6.665,0,8.877c-2.85-0.068,3.523,0.339,0,8.878
	c-3.493,2.104-0.956,5.966,0,8.878c3.582,7.82-4.587,7.124,0,8.878c4.998,12.052,0.079,1.782,0,8.878
	c-0.318,6.492,1.577-3.064,4.438,7.688c11.268-0.473,0.278,18.322,4.438,7.688c-0.956,5.094,0.154,11.969,4.439,7.689
	c1.83,7.342,1.548,6.348,4.439,7.69c-3.003-0.875,13.984,13.367,4.438,7.688c4.868-4.783-6.745,9.273,4.438,7.688
	c-4.959,8.824,5.72,7.199,4.439,7.688C34.395,226.363,46.783,235.068,37.542,232.104z"/>
</svg>
