<?xml version="1.0" encoding="utf-8"?>
<!-- Generator: Adobe Illustrator 17.1.0, SVG Export Plug-In . SVG Version: 6.00 Build 0)  -->
<!DOCTYPE svg PUBLIC "-//W3C//DTD SVG 1.1//EN" "http://www.w3.org/Graphics/SVG/1.1/DTD/svg11.dtd">
<svg version="1.1" id="Layer_1" xmlns="http://www.w3.org/2000/svg" xmlns:xlink="http://www.w3.org/1999/xlink" x="0px" y="0px"
	 viewBox="0 0 196.217 186.613" enable-background="new 0 0 196.217 186.613" xml:space="preserve">
<polygon fill="#FFFFFF" stroke="#000000" stroke-miterlimit="10" points="37.837,186.113 0.588,71.472 98.108,0.618 195.629,71.472 
	158.379,186.113 "/>
<polygon fill="#FFFFFF" stroke="#000000" stroke-miterlimit="10" points="45.495,177.39 12.865,76.964 98.293,14.895 
	183.722,76.964 151.091,177.39 "/>
<line fill="none" stroke="#000000" stroke-miterlimit="10" x1="98.172" y1="15.063" x2="98.284" y2="95.973"/>
<line fill="none" stroke="#000000" stroke-miterlimit="10" x1="13.185" y1="76.991" x2="98.284" y2="95.973"/>
<line fill="none" stroke="#000000" stroke-miterlimit="10" x1="183.329" y1="76.756" x2="98.284" y2="95.973"/>
<line fill="none" stroke="#000000" stroke-miterlimit="10" x1="98.284" y1="95.973" x2="45.818" y2="176.954"/>
<line fill="none" stroke="#000000" stroke-miterlimit="10" x1="98.284" y1="95.973" x2="150.973" y2="176.807"/>
<line fill="none" stroke="#000000" stroke-miterlimit="10" x1="27.251" y1="80.129" x2="58.024" y2="58.317"/>
<line fill="none" stroke="#000000" stroke-miterlimit="10" x1="34.979" y1="81.852" x2="49.024" y2="71.651"/>
<line fill="none" stroke="#000000" stroke-miterlimit="10" x1="42.001" y1="83.419" x2="55.735" y2="74.067"/>
<line fill="none" stroke="#000000" stroke-miterlimit="10" x1="98.108" y1="72.567" x2="84.69" y2="81.852"/>
<line fill="none" stroke="#000000" stroke-miterlimit="10" x1="98.293" y1="78.743" x2="92.315" y2="82.567"/>
<line fill="none" stroke="#000000" stroke-miterlimit="10" x1="98.108" y1="86.481" x2="89.565" y2="91.817"/>
<line fill="none" stroke="#000000" stroke-miterlimit="10" x1="53.53" y1="165.246" x2="43.725" y2="128.825"/>
<line fill="none" stroke="#000000" stroke-miterlimit="10" x1="57.823" y1="158.594" x2="53.117" y2="141.886"/>
<line fill="none" stroke="#000000" stroke-miterlimit="10" x1="61.724" y1="152.549" x2="57.708" y2="136.427"/>
<line fill="none" stroke="#000000" stroke-miterlimit="10" x1="62.974" y1="88.001" x2="68.321" y2="103.415"/>
<line fill="none" stroke="#000000" stroke-miterlimit="10" x1="68.973" y1="89.478" x2="71.055" y2="96.263"/>
<line fill="none" stroke="#000000" stroke-miterlimit="10" x1="76.379" y1="91.312" x2="79.228" y2="100.974"/>
<line fill="none" stroke="#000000" stroke-miterlimit="10" x1="116.489" y1="95.973" x2="105.447" y2="107.986"/>
<line fill="none" stroke="#000000" stroke-miterlimit="10" x1="113.845" y1="107.135" x2="108.856" y2="112.182"/>
<line fill="none" stroke="#000000" stroke-miterlimit="10" x1="119.062" y1="109.677" x2="111.905" y2="116.764"/>
<line fill="none" stroke="#000000" stroke-miterlimit="10" x1="78.465" y1="126.757" x2="94.774" y2="127.177"/>
<line fill="none" stroke="#000000" stroke-miterlimit="10" x1="81.958" y1="121.662" x2="89.042" y2="122.101"/>
<line fill="none" stroke="#000000" stroke-miterlimit="10" x1="85.843" y1="115.376" x2="95.888" y2="116.108"/>
<line fill="none" stroke="#000000" stroke-miterlimit="10" x1="144.504" y1="166.951" x2="106.786" y2="167.218"/>
<line fill="none" stroke="#000000" stroke-miterlimit="10" x1="141.154" y1="161.152" x2="123.798" y2="161.474"/>
<line fill="none" stroke="#000000" stroke-miterlimit="10" x1="137.292" y1="155.865" x2="120.679" y2="155.671"/>
<line fill="none" stroke="#000000" stroke-miterlimit="10" x1="173.462" y1="78.894" x2="159.639" y2="113.987"/>
<line fill="none" stroke="#000000" stroke-miterlimit="10" x1="166.551" y1="80.219" x2="160.376" y2="96.441"/>
<line fill="none" stroke="#000000" stroke-miterlimit="10" x1="159.376" y1="82.567" x2="152.997" y2="97.908"/>
<line fill="none" stroke="#000000" stroke-miterlimit="10" x1="98.228" y1="25.41" x2="126.596" y2="50.266"/>
<line fill="none" stroke="#000000" stroke-miterlimit="10" x1="98.293" y1="33.241" x2="111.48" y2="44.528"/>
<line fill="none" stroke="#000000" stroke-miterlimit="10" x1="98.108" y1="40.659" x2="110.396" y2="51.842"/>
<line fill="none" stroke="#000000" stroke-miterlimit="10" x1="103.844" y1="78.605" x2="110.082" y2="93.682"/>
<line fill="none" stroke="#000000" stroke-miterlimit="10" x1="112.85" y1="85.71" x2="115.324" y2="92.36"/>
<line fill="none" stroke="#000000" stroke-miterlimit="10" x1="117.355" y1="81.626" x2="120.764" y2="91.103"/>
</svg>
