<?xml version="1.0" encoding="utf-8"?>
<!-- Generator: Adobe Illustrator 17.1.0, SVG Export Plug-In . SVG Version: 6.00 Build 0)  -->
<!DOCTYPE svg PUBLIC "-//W3C//DTD SVG 1.1//EN" "http://www.w3.org/Graphics/SVG/1.1/DTD/svg11.dtd">
<svg version="1.1" id="Layer_1" xmlns="http://www.w3.org/2000/svg" xmlns:xlink="http://www.w3.org/1999/xlink" x="0px" y="0px"
	 viewBox="0 0 195.629 186.054" enable-background="new 0 0 195.629 186.054" xml:space="preserve">
<linearGradient id="SVGID_1_" gradientUnits="userSpaceOnUse" x1="12.5707" y1="95.8339" x2="183.4281" y2="95.8339">
	<stop  offset="0" style="stop-color:#FFFFFF;stop-opacity:0.2"/>
	<stop  offset="1" style="stop-color:#FFFFFF;stop-opacity:0.2"/>
</linearGradient>
<polygon fill="url(#SVGID_1_)" stroke="#494647" stroke-width="0.5" stroke-miterlimit="10" points="45.202,177.081 12.571,76.655 
	97.999,14.586 183.428,76.655 150.797,177.081 "/>
<polygon fill="none" stroke="#494647" stroke-width="0.5" stroke-miterlimit="10" points="37.543,185.804 0.294,71.163 
	97.814,0.309 195.335,71.163 158.085,185.804 "/>
<line fill="none" stroke="#494647" stroke-width="0.5" stroke-miterlimit="10" x1="97.878" y1="14.754" x2="97.99" y2="95.664"/>
<line fill="none" stroke="#494647" stroke-width="0.5" stroke-miterlimit="10" x1="12.891" y1="76.682" x2="97.99" y2="95.664"/>
<line fill="none" stroke="#494647" stroke-width="0.5" stroke-miterlimit="10" x1="183.035" y1="76.447" x2="97.99" y2="95.664"/>
<line fill="none" stroke="#494647" stroke-width="0.5" stroke-miterlimit="10" x1="97.99" y1="95.664" x2="45.524" y2="176.645"/>
<line fill="none" stroke="#494647" stroke-width="0.5" stroke-miterlimit="10" x1="97.99" y1="95.664" x2="150.679" y2="176.498"/>
<line fill="none" stroke="#494647" stroke-width="0.5" stroke-miterlimit="10" x1="26.957" y1="79.82" x2="57.73" y2="58.008"/>
<line fill="none" stroke="#494647" stroke-width="0.5" stroke-miterlimit="10" x1="34.685" y1="81.543" x2="48.73" y2="71.342"/>
<line fill="none" stroke="#494647" stroke-width="0.5" stroke-miterlimit="10" x1="41.707" y1="83.11" x2="55.441" y2="73.758"/>
<line fill="none" stroke="#494647" stroke-width="0.5" stroke-miterlimit="10" x1="97.814" y1="72.258" x2="84.396" y2="81.543"/>
<line fill="none" stroke="#494647" stroke-width="0.5" stroke-miterlimit="10" x1="97.999" y1="78.434" x2="92.021" y2="82.258"/>
<line fill="none" stroke="#494647" stroke-width="0.5" stroke-miterlimit="10" x1="97.814" y1="86.172" x2="89.271" y2="91.508"/>
<line fill="none" stroke="#494647" stroke-width="0.5" stroke-miterlimit="10" x1="53.236" y1="164.937" x2="43.432" y2="128.516"/>
<line fill="none" stroke="#494647" stroke-width="0.5" stroke-miterlimit="10" x1="57.529" y1="158.285" x2="52.824" y2="141.577"/>
<line fill="none" stroke="#494647" stroke-width="0.5" stroke-miterlimit="10" x1="61.431" y1="152.24" x2="57.414" y2="136.118"/>
<line fill="none" stroke="#494647" stroke-width="0.5" stroke-miterlimit="10" x1="62.681" y1="87.692" x2="68.027" y2="103.106"/>
<line fill="none" stroke="#494647" stroke-width="0.5" stroke-miterlimit="10" x1="68.68" y1="89.169" x2="70.761" y2="95.954"/>
<line fill="none" stroke="#494647" stroke-width="0.5" stroke-miterlimit="10" x1="76.085" y1="91.003" x2="78.934" y2="100.665"/>
<line fill="none" stroke="#494647" stroke-width="0.5" stroke-miterlimit="10" x1="116.195" y1="95.664" x2="105.153" y2="107.677"/>
<line fill="none" stroke="#494647" stroke-width="0.5" stroke-miterlimit="10" x1="113.551" y1="106.826" x2="108.562" y2="111.873"/>
<line fill="none" stroke="#494647" stroke-width="0.5" stroke-miterlimit="10" x1="118.768" y1="109.368" x2="111.611" y2="116.455"/>
<line fill="none" stroke="#494647" stroke-width="0.5" stroke-miterlimit="10" x1="78.171" y1="126.448" x2="94.48" y2="126.868"/>
<line fill="none" stroke="#494647" stroke-width="0.5" stroke-miterlimit="10" x1="81.664" y1="121.353" x2="88.748" y2="121.792"/>
<line fill="none" stroke="#494647" stroke-width="0.5" stroke-miterlimit="10" x1="85.549" y1="115.067" x2="95.594" y2="115.799"/>
<line fill="none" stroke="#494647" stroke-width="0.5" stroke-miterlimit="10" x1="144.21" y1="166.642" x2="106.492" y2="166.909"/>
<line fill="none" stroke="#494647" stroke-width="0.5" stroke-miterlimit="10" x1="140.86" y1="160.843" x2="123.504" y2="161.165"/>
<line fill="none" stroke="#494647" stroke-width="0.5" stroke-miterlimit="10" x1="136.998" y1="155.556" x2="120.385" y2="155.362"/>
<line fill="none" stroke="#494647" stroke-width="0.5" stroke-miterlimit="10" x1="173.168" y1="78.585" x2="159.345" y2="113.678"/>
<line fill="none" stroke="#494647" stroke-width="0.5" stroke-miterlimit="10" x1="166.257" y1="79.91" x2="160.082" y2="96.132"/>
<line fill="none" stroke="#494647" stroke-width="0.5" stroke-miterlimit="10" x1="159.082" y1="82.258" x2="152.703" y2="97.599"/>
<line fill="none" stroke="#494647" stroke-width="0.5" stroke-miterlimit="10" x1="97.934" y1="25.101" x2="126.302" y2="49.957"/>
<line fill="none" stroke="#494647" stroke-width="0.5" stroke-miterlimit="10" x1="97.999" y1="32.932" x2="111.186" y2="44.219"/>
<line fill="none" stroke="#494647" stroke-width="0.5" stroke-miterlimit="10" x1="97.814" y1="40.35" x2="110.102" y2="51.533"/>
<line fill="none" stroke="#494647" stroke-width="0.5" stroke-miterlimit="10" x1="103.55" y1="78.296" x2="109.788" y2="93.373"/>
<line fill="none" stroke="#494647" stroke-width="0.5" stroke-miterlimit="10" x1="112.557" y1="85.401" x2="115.03" y2="92.051"/>
<line fill="none" stroke="#494647" stroke-width="0.5" stroke-miterlimit="10" x1="117.061" y1="81.317" x2="120.47" y2="90.794"/>
</svg>
