<?xml version="1.0" encoding="utf-8"?>
<!-- Generator: Adobe Illustrator 17.1.0, SVG Export Plug-In . SVG Version: 6.00 Build 0)  -->
<!DOCTYPE svg PUBLIC "-//W3C//DTD SVG 1.1//EN" "http://www.w3.org/Graphics/SVG/1.1/DTD/svg11.dtd">
<svg version="1.1" id="Layer_1" xmlns="http://www.w3.org/2000/svg" xmlns:xlink="http://www.w3.org/1999/xlink" x="0px" y="0px"
	 viewBox="0 0 110.349 245.242" enable-background="new 0 0 110.349 245.242" xml:space="preserve">
<path opacity="0.3" fill="#78AA41" d="M110.349,231.73c0,7.462-6.05,13.512-13.512,13.512H13.513C6.051,245.242,0,239.192,0,231.73
	V13.512C0,6.05,6.051,0,13.513,0h83.324c7.462,0,13.512,6.05,13.512,13.512V231.73z"/>
<path opacity="0.5" fill="#78AA41" d="M17.991,101.374c0.68,0.449,1.379-0.001,2.096,1.005c0.715,0.338,1.449,0.033,2.199,2.842
	c0.752,0.109,1.519,1.184,2.303,1.613c0.783-1.369,1.582-0.489,2.396,1.751c0.816,1.774,1.648,1.413,2.494,1.376
	c0.848,0.344,1.709,0.617,2.582,1.471c0.875-0.906,1.764,1.306,2.664,1.249c0.9,0.134,1.814,0.339,2.74,1.032
	c0.924,1.414,1.857,0.5,2.803,0.629c0.947,0.048,1.904,0.555,2.871,1.042c0.967,0.534,1.943,1.992,2.93,0.702
	c0.988,0.527,1.984,1.618,2.988,0.329c1.004-1.997,2.016-2.269,3.035,0.263c1.02,1.389,2.047-1.236,3.082,0.09
	c1.027,1.18,2.047,1.27,3.059-0.088c1.012-1.775,2.018-2.722,3.014-0.26c1.008-0.684,2.006,1.189,2.996-0.279
	c0.99-0.774,1.971-0.843,2.939-0.75c0.971,0.855,1.93-0.93,2.879-0.514c0.947-0.877,1.885-3.522,2.811-1.16
	c0.926,1.295,1.838,0.463,2.738-0.894c0.9-1.261,1.789-2.197,2.662-1.386c0.873,2.856,1.734,2.414,2.58,0.246
	c0.846-0.484,1.678-3.604,2.494-3.088c0.816,1.064,1.617-1.275,2.402-0.123c0.785-1.881,1.555-1.902,2.307-3.245
	c0.752-1.73,1.486-1.316,2.203-3.045c0.717-1.442,1.416,1.934,2.098-0.809c0.682-1.356,1.344-1.806,1.986-4.18
	c0.643-1.713,1.266-2.44,1.867-0.116c0.604-2.075,1.188-2.003,1.748-2.735c0.562-0.651,1.104-4.12,1.623-1.968
	c0.52-2.414,1.018-3.682,1.494-3.252c0.475,2.848,0.928-0.467,1.357-1.828c0.43-0.814,0.834-4.89,1.215-5.129
	c0.381-0.41,0.738,1.51,1.07-0.279c0.33-0.532,0.635-3.633,0.914-2.984c0.279,0.256,0.533-2.582,0.76-2.692
	c0.229-3.794,0.428,1.54,0.6-2.126c0.172-0.606,0.318-1.844,0.434-3.799c0.117-2.912,0.205,4.82,0.264-3.037
	c0.059-4.664,0.09-3.138,0.09-3.084c0,2.211-0.008,2.797-0.021,2.492c-0.016-0.541-0.037-2.396-0.066-5.555
	c-0.029,2.922-0.067,2.092-0.109,0.867c-0.043-1.889-0.094-5.711-0.15-3.883c-0.117,2.797-0.262-7.854-0.434-3.639
	c-0.172-1.113-0.371,0.172-0.6-2.303c-0.227-3.4-0.48,0.795-0.76-1.17c-0.279,1.251-0.586-2.943-0.916-4.524
	c-0.332-2.386-0.687-3.164-1.068-2.412c-0.381-2.439-0.785-2.488-1.215-2.994c-0.428-0.805-0.881-2.789-1.355-3.086
	c-0.475-2.591-0.973-1.944-1.492-1.991c-0.52,1.985-1.061-1.167-1.625-1.29c-0.562,2.457-1.145-3.287-1.75-3.42
	c-0.604-2.207-1.227-4.632-1.871-2.1c-0.642-0.062-1.307-2.626-1.988-2.205c-0.68-0.002-1.381-1.785-2.098-1.37
	c-0.717-0.026-1.451-1.905-2.203-2.483c-0.752-3.112-1.521-1.263-2.307-0.92c-0.785-1.353-1.586-2.347-2.402-2.448
	c-0.816-1.441-1.648-1.406-2.494-2.123c-0.846-2.217-1.705-1.219-2.58-0.72c-0.873,0.343-1.762-3.605-2.662-1.029
	c-0.9-0.055-1.814-4.767-2.738-1.249c-0.926,3.353-1.863,1.174-2.811-0.426c-0.949-1.252-1.908-1.035-2.879-1.248
	c-1.939-1.231-3.92,0.006-5.935-1.03c-0.996-2.868-2.002-1.642-3.014-0.259c-1.012,4.663-2.031,1.762-3.059-0.088
	c-1.035,2.203-2.062,4.086-3.082,0.089c-1.02,4.474-2.031,0.992-3.035,0.263c-2.01-3.14-3.984-0.596-5.918,1.031
	c-0.967,0.138-1.924-0.608-2.871-0.807c-0.945-0.199-1.879,0.033-2.803,2.479c-0.926,1.232-1.84,2.867-2.74,0.454
	c-0.9,0.546-1.789-1.347-2.664,1.827c-0.875,4.221-1.734,0.838-2.582,1.797c-0.846-0.525-1.678-2.471-2.494,1.049
	c-0.815-2.56-1.613-0.947-2.399-0.194c-0.783,0.364-1.549,1.038-2.301,3.559c-0.75,1.046-1.484,2.046-2.199,2.16
	c-0.717,3.491-1.416,3.702-2.096,1.687c-0.682-0.832-1.344,1.25-1.988,1.37c-0.643,0.761-1.268,2.081-1.871,2.935
	c-0.604-0.611-1.188,2.229-1.75,1.737c-0.562,1.312-1.104,2.851-1.623,2.973c-0.52,3.819-1.018,3.355-1.492,3.571
	c-0.477-0.9-0.928-1.389-1.357,1.506c-0.428-1.34-0.834,2.852-1.215,1.652c-0.379,0.273-0.736,3.402-1.066,3.754
	c-0.332,1.715-0.637,1.227-0.918,0.711c-0.279,0.397-0.533,0.611-0.76,4.982c-0.227,2.508-0.426,2.84-0.6,3.277
	c-0.172,0.215-0.316,0.32-0.432,2.664c-0.115-0.332-0.201,2.366-0.26,3.016c-0.059-0.453-0.088,0.82-0.088,3.062
	c0,0.696,0.029,0.984,0.088,3.084c0.031-1.75,0.066,0.704,0.111,2.109c0.043,1.289,0.096,1.322,0.152,0.928
	c0.117,3.019,0.262,1.119,0.436,2.805c0.172,0.264,0.371,1.568,0.598,3.12c0.227,3.578,0.48,1.933,0.76,2.835
	c0.279,1.023,0.586,0.721,0.916,2.842c0.33,1.84,0.688,5.173,1.068,4.985c0.381,3.269,0.787,2.938,1.217,0.423
	c0.428,1.174,0.881,3.239,1.357,2.858c0.475,0.819,0.973,0.964,1.494,2.222c0.519,2.531,1.061,0.97,1.621,2.467
	c0.563,0.979,1.147,1.414,1.748,2.236c0.604,1.807,1.227,2.25,1.869,2.415C16.649,99.791,17.311,101.816,17.991,101.374z"/>
<path opacity="0.5" fill="#78AA41" d="M21.562,223.373c0.718,0.383,1.371-0.132,2.179,0.803c0.745,0.269,1.446-0.103,2.459,2.624
	c0.758,0.038,1.623,1.036,2.443,1.389c0.65-1.438,1.529-0.636,2.551,1.518c0.979,1.689,1.774,1.25,2.612,1.134
	c0.876,0.265,1.759,0.454,2.709,1.222c0.786-0.983,1.878,1.135,2.771,0.993c0.908,0.049,1.838,0.166,2.825,0.77
	c1.052,1.322,1.896,0.324,2.849,0.363c0.947-0.042,1.947,0.374,2.956,0.768c1.013,0.441,2.123,1.801,2.983,0.424
	c1.033,0.43,2.127,1.424,3.006,0.045c0.811-2.083,1.794-2.449,3.047-0.022c1.145,1.287,1.921-1.423,3.076-0.202
	c1.133,1.08,2.156,1.071,3.037-0.375c0.841-1.863,1.752-2.898,2.975-0.541c0.938-0.775,2.109,0.995,2.956-0.56
	c0.913-0.864,1.883-1.025,2.856-1.024c1.046,0.76,1.833-1.105,2.817-0.781c0.861-0.963,1.545-3.684,2.688-1.422
	c1.044,1.205,1.874,0.289,2.644-1.146c0.777-1.338,1.573-2.355,2.52-1.628c1.138,2.761,1.953,2.239,2.592,0.003
	c0.796-0.564,1.331-3.748,2.192-3.311c0.912,0.983,1.49-1.422,2.38-0.35c0.604-1.943,1.369-2.038,1.991-3.446
	c0.586-1.794,1.356-1.45,1.907-3.239c0.578-1.502,1.591,1.792,2.012-1.002c0.552-1.414,1.168-1.923,1.585-4.349
	c0.479-1.766,1.029-2.549,1.848-0.292c0.405-2.122,0.993-2.104,1.482-2.887c0.499-0.703,0.711-4.205,1.431-2.111
	c0.291-2.453,0.667-3.762,1.182-3.379c0.741,2.791,0.88-0.552,1.18-1.947c0.352-0.852,0.37-4.945,0.727-5.221
	c0.341-0.443,0.878,1.436,1.04-0.377c0.278-0.562,0.29-3.678,0.629-3.059c0.302,0.227,0.288-2.62,0.503-2.752
	c-0.13-3.797,0.571,1.493,0.397-2.174c0.114-0.619,0.143-1.864,0.074-3.82c-0.157-2.91,0.657,4.779-0.023-3.051
	c-0.381-4.648-0.206-3.131-0.201-3.079c0.208,2.202,0.256,2.788,0.213,2.483c-0.066-0.537-0.262-2.381-0.588-5.523
	c0.245,2.911,0.131,2.09-0.027,0.873c-0.221-1.874-0.631-5.675-0.516-3.852c0.146,2.797-0.999-7.793-0.773-3.581
	c-0.275-1.091-0.354,0.208-0.814-2.236c-0.545-3.362-0.402,0.836-0.866-1.092c-0.16,1.271-0.859-2.876-1.337-4.419
	c-0.555-2.343-0.982-3.084-1.291-2.3c-0.608-2.392-1.015-2.402-1.491-2.866c-0.501-0.762-1.14-2.694-1.64-2.946
	c-0.716-2.534-1.15-1.843-1.673-1.841c-0.33,2.025-1.165-1.062-1.739-1.131c-0.328,2.498-1.448-3.166-2.063-3.242
	c-0.809-2.139-1.657-4.494-2.061-1.912c-0.646-0.002-1.548-2.492-2.187-2.008c-0.677,0.062-1.543-1.646-2.218-1.168
	c-0.716,0.041-1.624-1.76-2.427-2.264c-1.041-3.027-1.634-1.115-2.383-0.699c-0.909-1.273-1.8-2.187-2.622-2.211
	c-0.948-1.358-1.773-1.244-2.683-1.879c-1.051-2.129-1.812-1.054-2.636-0.475c-0.838,0.424-2.093-3.421-2.747-0.773
	c-0.902,0.029-2.255-4.574-2.845-0.986c-0.607,3.426-1.744,1.345-2.838-0.16c-1.063-1.156-1.997-0.85-2.983-0.971
	c-2.047-1.041-3.902,0.375-6.007-0.467c-1.262-2.762-2.146-1.447-3.023,0.023c-0.57,4.739-1.857,1.947-3.055,0.201
	c-0.822,2.292-1.668,4.263-3.059,0.379c-0.595,4.551-1.931,1.179-2.997,0.549c-2.296-2.938-4.023-0.219-5.796,1.583
	c-0.949,0.227-1.973-0.426-2.934-0.534c-0.959-0.107-1.868,0.209-2.557,2.732c-0.806,1.312-1.562,3.025-2.686,0.709
	c-0.846,0.627-1.907-1.171-2.48,2.069c-0.474,4.284-1.648,0.997-2.401,2.031c-0.892-0.444-1.902-2.3-2.384,1.28
	c-1.054-2.473-1.697-0.791-2.406,0.031c-0.746,0.436-1.445,1.178-1.956,3.76c-0.649,1.11-1.285,2.176-1.987,2.357
	c-0.386,3.542-1.061,3.819-1.927,1.877c-0.757-0.767-1.221,1.369-1.851,1.55c-0.569,0.817-1.067,2.192-1.588,3.097
	c-0.658-0.549-0.973,2.332-1.579,1.896c-0.436,1.359-0.83,2.942-1.336,3.112c-0.157,3.852-0.697,3.436-1.149,3.696
	c-0.559-0.854-1.055-1.294-1.209,1.627c-0.553-1.293-0.562,2.918-1.054,1.758c-0.352,0.308-0.413,3.458-0.71,3.837
	c-0.168,1.74-0.518,1.281-0.846,0.796c-0.24,0.422-0.474,0.657-0.288,5.03c0.01,2.52-0.157,2.867-0.288,3.319
	c-0.151,0.232-0.285,0.351-0.181,2.692c-0.145-0.316,0.023,2.376,0.025,3.027c-0.101-0.445-0.01,0.826,0.201,3.057
	c0.065,0.694,0.122,0.98,0.379,3.062c-0.135-1.746,0.132,0.695,0.308,2.092c0.165,1.277,0.22,1.306,0.24,0.909
	c0.399,2.993,0.366,1.09,0.696,2.751c0.196,0.245,0.517,1.525,0.89,3.049c0.563,3.542,0.66,1.881,1.023,2.752
	c0.375,0.992,0.651,0.663,1.179,2.744c0.503,1.799,1.173,5.083,1.534,4.86c0.687,3.22,1.06,2.851,1.25,0.308
	c0.537,1.129,1.183,3.142,1.62,2.717c0.55,0.771,1.06,0.869,1.696,2.072c0.756,2.473,1.147,0.865,1.847,2.303
	c0.651,0.923,1.275,1.3,1.951,2.062c0.77,1.743,1.433,2.126,2.088,2.23C20.077,221.924,20.927,223.877,21.562,223.373z"/>
</svg>
