<?xml version="1.0" encoding="utf-8"?>
<!-- Generator: Adobe Illustrator 17.1.0, SVG Export Plug-In . SVG Version: 6.00 Build 0)  -->
<!DOCTYPE svg PUBLIC "-//W3C//DTD SVG 1.1//EN" "http://www.w3.org/Graphics/SVG/1.1/DTD/svg11.dtd">
<svg version="1.1" id="Layer_1" xmlns="http://www.w3.org/2000/svg" xmlns:xlink="http://www.w3.org/1999/xlink" x="0px" y="0px"
	 viewBox="0 0 204.4 224.4" enable-background="new 0 0 204.4 224.4" xml:space="preserve">
<polygon fill="none" stroke="#636364" stroke-width="0.4" stroke-miterlimit="10" points="0.2,224.2 106.867,224.2 106.867,90.867 
	204.2,90.867 204.2,0.2 0.2,0.2 "/>
<polygon fill="none" stroke="#636364" stroke-width="0.4" stroke-miterlimit="10" points="16.199,208.2 91.539,208.2 91.538,76.435 
	189.2,76.435 189.034,15.1 16.199,15.1 "/>
<polygon fill="none" stroke="#636364" stroke-width="0.4" stroke-miterlimit="10" points="32.075,193.7 74.572,193.7 74.571,63.119 
	174.867,63.119 174.867,28.522 32.075,28.522 "/>
<line fill="none" stroke="#636364" stroke-width="0.4" stroke-miterlimit="10" x1="174.867" y1="63.119" x2="188.117" y2="76.435"/>
<line fill="none" stroke="#636364" stroke-width="0.4" stroke-miterlimit="10" x1="174.867" y1="28.522" x2="189.034" y2="15.1"/>
<line fill="none" stroke="#636364" stroke-width="0.4" stroke-miterlimit="10" x1="16.199" y1="15.1" x2="32.075" y2="28.522"/>
<line fill="none" stroke="#636364" stroke-width="0.4" stroke-miterlimit="10" x1="32.075" y1="193.7" x2="16.199" y2="208.2"/>
<line fill="none" stroke="#636364" stroke-width="0.4" stroke-miterlimit="10" x1="74.572" y1="193.7" x2="91.539" y2="208.2"/>
<line fill="none" stroke="#636364" stroke-width="0.4" stroke-miterlimit="10" x1="74.571" y1="63.119" x2="91.538" y2="76.435"/>
<polygon fill="none" stroke="#636364" stroke-width="0.4" stroke-miterlimit="10" points="38.528,168.075 38.528,184.056 
	56.029,184.056 56.029,176.066 61.737,176.066 61.737,184.056 67.443,184.056 67.443,168.075 "/>
<polygon fill="none" stroke="#636364" stroke-width="0.4" stroke-miterlimit="10" points="38.528,165.791 67.443,165.791 
	52.986,153.236 "/>
</svg>
