<?xml version="1.0" encoding="utf-8"?>
<!-- Generator: Adobe Illustrator 17.1.0, SVG Export Plug-In . SVG Version: 6.00 Build 0)  -->
<!DOCTYPE svg PUBLIC "-//W3C//DTD SVG 1.1//EN" "http://www.w3.org/Graphics/SVG/1.1/DTD/svg11.dtd">
<svg version="1.1" id="Layer_1" xmlns="http://www.w3.org/2000/svg" xmlns:xlink="http://www.w3.org/1999/xlink" x="0px" y="0px"
	 viewBox="0 0 224.4 204.4" enable-background="new 0 0 224.4 204.4" xml:space="preserve">
<polygon fill="none" stroke="#636364" stroke-width="0.4" stroke-miterlimit="10" points="224.2,204.2 224.2,97.533 90.867,97.533 
	90.867,0.2 0.2,0.2 0.2,204.2 "/>
<polygon fill="none" stroke="#636364" stroke-width="0.4" stroke-miterlimit="10" points="208.2,188.201 208.2,112.861 
	76.435,112.862 76.435,15.2 15.1,15.366 15.1,188.201 "/>
<polygon fill="none" stroke="#636364" stroke-width="0.4" stroke-miterlimit="10" points="193.7,172.325 193.7,129.828 
	63.119,129.829 63.119,29.533 28.522,29.533 28.522,172.325 "/>
<line fill="none" stroke="#636364" stroke-width="0.4" stroke-miterlimit="10" x1="63.119" y1="29.533" x2="76.435" y2="16.283"/>
<line fill="none" stroke="#636364" stroke-width="0.4" stroke-miterlimit="10" x1="28.522" y1="29.533" x2="15.1" y2="15.366"/>
<line fill="none" stroke="#636364" stroke-width="0.4" stroke-miterlimit="10" x1="15.1" y1="188.201" x2="28.522" y2="172.325"/>
<line fill="none" stroke="#636364" stroke-width="0.4" stroke-miterlimit="10" x1="193.7" y1="172.325" x2="208.2" y2="188.201"/>
<line fill="none" stroke="#636364" stroke-width="0.4" stroke-miterlimit="10" x1="193.7" y1="129.828" x2="208.2" y2="112.861"/>
<line fill="none" stroke="#636364" stroke-width="0.4" stroke-miterlimit="10" x1="63.119" y1="129.829" x2="76.435" y2="112.862"/>
<polygon fill="none" stroke="#636364" stroke-width="0.4" stroke-miterlimit="10" points="153.534,151.926 153.534,167.908 
	171.035,167.908 171.035,159.917 176.743,159.917 176.743,167.908 182.449,167.908 182.449,151.926 "/>
<polygon fill="none" stroke="#636364" stroke-width="0.4" stroke-miterlimit="10" points="153.534,149.643 182.449,149.643 
	167.992,137.087 "/>
</svg>
