<?xml version="1.0" encoding="utf-8"?>
<!-- Generator: Adobe Illustrator 17.1.0, SVG Export Plug-In . SVG Version: 6.00 Build 0)  -->
<!DOCTYPE svg PUBLIC "-//W3C//DTD SVG 1.1//EN" "http://www.w3.org/Graphics/SVG/1.1/DTD/svg11.dtd">
<svg version="1.1" id="Layer_1" xmlns="http://www.w3.org/2000/svg" xmlns:xlink="http://www.w3.org/1999/xlink" x="0px" y="0px"
	 viewBox="0 0 224.4 204.4" enable-background="new 0 0 224.4 204.4" xml:space="preserve">
<polygon fill="none" stroke="#636364" stroke-width="0.4" stroke-miterlimit="10" points="0.2,0.2 0.2,106.867 133.533,106.867 
	133.533,204.2 224.2,204.2 224.2,0.2 "/>
<polygon fill="none" stroke="#636364" stroke-width="0.4" stroke-miterlimit="10" points="16.2,16.199 16.2,91.539 147.965,91.538 
	147.965,189.2 209.3,189.034 209.3,16.199 "/>
<polygon fill="none" stroke="#636364" stroke-width="0.4" stroke-miterlimit="10" points="30.7,32.075 30.7,74.572 161.281,74.571 
	161.281,174.867 195.878,174.867 195.878,32.075 "/>
<line fill="none" stroke="#636364" stroke-width="0.4" stroke-miterlimit="10" x1="161.281" y1="174.867" x2="147.965" y2="188.117"/>
<line fill="none" stroke="#636364" stroke-width="0.4" stroke-miterlimit="10" x1="195.878" y1="174.867" x2="209.3" y2="189.034"/>
<line fill="none" stroke="#636364" stroke-width="0.4" stroke-miterlimit="10" x1="209.3" y1="16.199" x2="195.878" y2="32.075"/>
<line fill="none" stroke="#636364" stroke-width="0.4" stroke-miterlimit="10" x1="30.7" y1="32.075" x2="16.2" y2="16.199"/>
<line fill="none" stroke="#636364" stroke-width="0.4" stroke-miterlimit="10" x1="30.7" y1="74.572" x2="16.2" y2="91.539"/>
<line fill="none" stroke="#636364" stroke-width="0.4" stroke-miterlimit="10" x1="161.281" y1="74.571" x2="147.965" y2="91.538"/>
<polygon fill="none" stroke="#636364" stroke-width="0.4" stroke-miterlimit="10" points="41.951,52.742 41.951,68.723 
	59.452,68.723 59.452,60.733 65.16,60.733 65.16,68.723 70.866,68.723 70.866,52.742 "/>
<polygon fill="none" stroke="#636364" stroke-width="0.4" stroke-miterlimit="10" points="41.951,50.458 70.866,50.458 
	56.409,37.903 "/>
</svg>
