<?xml version="1.0" encoding="utf-8"?>
<!-- Generator: Adobe Illustrator 17.1.0, SVG Export Plug-In . SVG Version: 6.00 Build 0)  -->
<!DOCTYPE svg PUBLIC "-//W3C//DTD SVG 1.1//EN" "http://www.w3.org/Graphics/SVG/1.1/DTD/svg11.dtd">
<svg version="1.1" id="Layer_1" xmlns="http://www.w3.org/2000/svg" xmlns:xlink="http://www.w3.org/1999/xlink" x="0px" y="0px"
	 viewBox="0 0 204.4 224.4" enable-background="new 0 0 204.4 224.4" xml:space="preserve">
<polygon fill="none" stroke="#636364" stroke-width="0.4" stroke-miterlimit="10" points="204.2,0.2 97.533,0.2 97.533,133.533 
	0.2,133.533 0.2,224.2 204.2,224.2 "/>
<polygon fill="none" stroke="#636364" stroke-width="0.4" stroke-miterlimit="10" points="188.201,16.2 112.861,16.2 
	112.862,147.965 15.2,147.965 15.366,209.3 188.201,209.3 "/>
<polygon fill="none" stroke="#636364" stroke-width="0.4" stroke-miterlimit="10" points="172.325,30.7 129.828,30.7 
	129.829,161.281 29.533,161.281 29.533,195.878 172.325,195.878 "/>
<line fill="none" stroke="#636364" stroke-width="0.4" stroke-miterlimit="10" x1="29.533" y1="161.281" x2="16.283" y2="147.965"/>
<line fill="none" stroke="#636364" stroke-width="0.4" stroke-miterlimit="10" x1="29.533" y1="195.878" x2="15.366" y2="209.3"/>
<line fill="none" stroke="#636364" stroke-width="0.4" stroke-miterlimit="10" x1="188.201" y1="209.3" x2="172.325" y2="195.878"/>
<line fill="none" stroke="#636364" stroke-width="0.4" stroke-miterlimit="10" x1="172.325" y1="30.7" x2="188.201" y2="16.2"/>
<line fill="none" stroke="#636364" stroke-width="0.4" stroke-miterlimit="10" x1="129.828" y1="30.7" x2="112.861" y2="16.2"/>
<line fill="none" stroke="#636364" stroke-width="0.4" stroke-miterlimit="10" x1="129.829" y1="161.281" x2="112.862" y2="147.965"/>
<polygon fill="none" stroke="#636364" stroke-width="0.4" stroke-miterlimit="10" points="136.617,60.899 136.617,76.881 
	154.118,76.881 154.118,68.891 159.826,68.891 159.826,76.881 165.533,76.881 165.533,60.899 "/>
<polygon fill="none" stroke="#636364" stroke-width="0.4" stroke-miterlimit="10" points="136.617,58.616 165.533,58.616 
	151.075,46.06 "/>
</svg>
