<?xml version="1.0" encoding="utf-8"?>
<!-- Generator: Adobe Illustrator 17.1.0, SVG Export Plug-In . SVG Version: 6.00 Build 0)  -->
<!DOCTYPE svg PUBLIC "-//W3C//DTD SVG 1.1//EN" "http://www.w3.org/Graphics/SVG/1.1/DTD/svg11.dtd">
<svg version="1.1" id="Layer_1" xmlns="http://www.w3.org/2000/svg" xmlns:xlink="http://www.w3.org/1999/xlink" x="0px" y="0px"
	 viewBox="0 0 32 32" enable-background="new 0 0 32 32" xml:space="preserve">
<g>
	<g>
		<path fill="#57C5CA" d="M16,2c7.72,0,14,6.28,14,14s-6.28,14-14,14S2,23.72,2,16S8.28,2,16,2 M16,0C7.163,0,0,7.163,0,16
			c0,8.836,7.163,16,16,16c8.837,0,16-7.164,16-16C32,7.163,24.837,0,16,0L16,0z"/>
	</g>
	<g>
		<g>
			<g>
				<g>
					<path fill="#231F20" d="M16,12.444c-1.964,0-3.556,1.592-3.556,3.556c0,1.963,1.592,3.555,3.556,3.555
						c1.964,0,3.556-1.592,3.556-3.555C19.556,14.036,17.964,12.444,16,12.444z M16,18c-1.106,0-2-0.896-2-2c0-1.106,0.894-2,2-2
						c1.104,0,2,0.894,2,2C18,17.104,17.104,18,16,18z"/>
				</g>
			</g>
			<path fill="#231F20" d="M16,12.666c1.485,0,2.744,0.973,3.174,2.316h0.233C18.045,10.411,16,3.555,16,3.555
				s-2.045,6.856-3.408,11.428h0.233C13.256,13.639,14.514,12.666,16,12.666z"/>
		</g>
	</g>
</g>
</svg>
