<?xml version="1.0" encoding="utf-8"?>
<!-- Generator: Adobe Illustrator 17.1.0, SVG Export Plug-In . SVG Version: 6.00 Build 0)  -->
<!DOCTYPE svg PUBLIC "-//W3C//DTD SVG 1.1//EN" "http://www.w3.org/Graphics/SVG/1.1/DTD/svg11.dtd">
<svg version="1.1" id="Layer_1" xmlns="http://www.w3.org/2000/svg" xmlns:xlink="http://www.w3.org/1999/xlink" x="0px" y="0px"
	 viewBox="0 0 113.76 114" enable-background="new 0 0 113.76 114" xml:space="preserve">
<g>
	<g>
		<path fill-rule="evenodd" clip-rule="evenodd" fill="#7AA57E" d="M63.411,110.192c-2.322-0.933-3.815,0.182-5.462-0.952
			c-1.144,0.123-1.111,1.425-1.663,2.142c-1.164-0.262-0.895-1.958-2.137-2.142c-1.165,0.181-0.993,1.702-1.425,2.618
			c-1.024-0.333-0.875-0.902-1.9-0.238c-0.854-0.889-0.772-2.716-1.425-3.808c-0.873,0.712-1.594,1.576-2.85,1.904
			c-0.698-0.252-0.47-1.432-1.188-1.665c-1.454,0.685-0.649,3.633-2.137,4.284c0.06-1.805-0.889-2.6-1.9-3.332
			c-0.872-0.001-0.91,0.834-1.425,1.19c-1.314-0.19-0.65-2.362-1.9-2.618c-2.064,0.628-2.447,2.942-3.325,4.76
			c-0.588-0.521-0.579-1.641-1.188-2.142c-0.201,0.513-1.514-0.089-1.663,0.476c-1.295-1.32-1.278-3.956-1.9-5.95
			c-1.257,0.44-2.141-0.765-3.325,0.238c-0.243-2.058-1.804-2.793-1.9-4.998c-0.731-0.177-0.456,0.653-1.187,0.476
			c-0.19-1.237-0.195-2.661-0.713-3.57c-0.981,0.048-0.741,1.32-1.9,1.19c-0.356-1.627-0.779-3.186-1.425-4.522
			c-0.279,0.038-0.674-0.041-0.712,0.238c-0.58-0.688-0.533-2.005-1.188-2.618c-3.1-0.068-1.979-5.631-4.987-4.998
			c-0.662-0.448-0.458-1.762-0.95-2.38c-0.409-0.013-0.609,0.183-0.712,0.476c-0.491-1.491-1.701-2.262-2.138-3.808
			c-0.744-0.111-0.669,0.599-0.95,0.952c-1.798-2.324-2.599-5.646-4.75-7.616c-0.276,0.2-0.637,0.314-1.188,0.238
			c-1.753-3.153,0.298-6.427,0-10.234c0.535,0.099-0.036,1.305,0.712,1.19c0.762-2.807,1.112-6.025,1.425-9.282
			c0.489,0.065,0.057,1.054,0.712,0.952c0.761-3.284,1.236-6.854,1.187-10.948c2.778-4.991,3.212-12.33,4.75-18.564
			c0.351-0.124,0.598-0.352,0.95-0.476c-0.113-1.462,0.238-2.458,0.475-3.57c0.631,0.479,0.576,1.644,1.425,1.904
			c3.258-0.86,2.301-5.945,4.275-8.092c1.228,0.516,2.362,1.124,3.562,1.666c1.578-1.49,3.643-4.465,6.413-2.618
			c1.893-0.958,1.464-4.245,3.087-5.474c0.732,0.218,0.913,0.989,2.137,0.714c0.381,0.412,0.115,1.472,0.712,1.666
			c1.368-0.057,1.011-1.842,1.663-2.618c0.825-0.447,0.902,0.272,1.663,0.476c1.318-0.503,0.819-2.829,1.662-3.808
			c1.287,0.773,0.73,3.394,1.663,4.522c1.703-0.911,1.297-3.936,2.375-5.474c1.008,0.691,3.072,1.153,3.562-0.238
			c0.599,0.432,0.589,1.473,1.188,1.904c1.508-1.027,1.03-4.045,2.375-5.236c0.877,1.105,0.712,3.253,1.9,4.046
			c1.423-0.715,1.596-2.684,2.137-4.284c0.73,0.062,1.068,0.516,1.663,0.714c0.865-0.244,1.226-0.993,1.425-1.904
			c0.836,0.591,1.462,1.391,3.087,1.19c1.471,1.585,3.277,1.514,4.75,2.856c0.611-0.182,1.007-0.578,1.188-1.19
			c0.852,1.21,1.881,2.241,3.087,3.094c0.185-0.053,0.469-0.006,0.475-0.238c0.158,0,0.317,0,0.475,0
			c0.395,0.608,0.638-0.929,1.425-0.714c0.075,1.115,0.508,1.871,0.712,2.856c3.088-1.149,4.173,2.438,7.837,2.142
			c0.582,1.003,1.018,2.153,1.9,2.856c0.771-0.101,0.754-0.989,1.425-1.19c0.993-0.202,0.94,0.644,1.425,0.952
			c0.987-0.735,1.542-0.311,2.375,0.238c0.745-0.047,0.03-1.557,0.95-1.428c0.249,3.004,2.119,5.65,4.75,5.474
			c0.158,0,0.317,0,0.475,0c0.001,0.649,1.445,1.069,1.9,0.476c0.892,0.534,0.899,1.955,1.662,2.618
			c1.09-0.335,1.873-0.98,2.375-1.904c0.689,0.341,0.589,1.473,1.188,1.904c0.275-0.2,0.637-0.314,1.188-0.238
			c1.248,6.366,2.687,12.538,3.8,19.039c0.217,0.418,0.441,0.827,1.188,0.714c0.148,2.072,0.423,4.018,1.425,5.236
			c0.499,5.529,1.531,10.524,2.375,15.708c0.162,0.473,0.723,0.544,0.95,0.952c-0.16,3.73,2.167,6.968,1.187,9.996
			c-3.961,0.949-3.31,6.52-6.887,7.854c-2.346,2.251-3.765,5.43-4.75,9.044c-1.02,0.229-0.417-1.169-1.187-1.19
			c-3.592,2.827-5.775,7.065-7.837,11.424c-0.731,0.177-0.456-0.653-1.188-0.476c-4.099,3.747-5.659,10.037-10.925,12.614
			c-1.25-0.492-1.082-2.406-2.138-3.094c-1.385,0.199-1.052,2.12-2.85,1.904c-0.513,0.755-0.509,2.029-1.188,2.618
			c-2.039-1.13-2.113-4.229-4.513-4.997c-0.994,0.035-0.993,1.067-1.425,1.665c-1.271-0.566-2.561,0.284-3.8,0.476
			C63.727,110.192,63.569,110.192,63.411,110.192z"/>
		<path fill-rule="evenodd" clip-rule="evenodd" fill="#B4C9B2" d="M9.025,34.271c0.15-0.801-0.306-2.211,0.237-2.618
			C9.112,32.455,9.568,33.864,9.025,34.271z"/>
		<path fill-rule="evenodd" clip-rule="evenodd" fill="#B4C9B2" d="M5.462,49.979c0.155-1.273-0.312-3.168,0.237-4.046
			C5.545,47.206,6.012,49.102,5.462,49.979z"/>
		<path fill-rule="evenodd" clip-rule="evenodd" fill="#B4C9B2" d="M4.512,53.787c0.342-0.054,0.083-0.71,0.475-0.714
			c0,1.11,0,2.221,0,3.332C3.987,56.376,4.751,54.579,4.512,53.787z"/>
		<path fill-rule="evenodd" clip-rule="evenodd" fill="#B4C9B2" d="M0.95,71.875c-0.395-0.566-0.395-2.766,0-3.332
			C0.95,69.653,0.95,70.764,0.95,71.875z"/>
		<path fill-rule="evenodd" clip-rule="evenodd" fill="#B4C9B2" d="M65.311,110.192c-0.565,0.396-2.76,0.396-3.325,0
			c0.475,0,0.95,0,1.425,0c0.158,0,0.316,0,0.475,0C64.361,110.192,64.836,110.192,65.311,110.192z"/>
		<path fill-rule="evenodd" clip-rule="evenodd" fill="#EEF2ED" d="M113.76,71.399c-0.628,1.512-2.193,2.086-3.325,3.094
			c-0.729,2.363-2.096,4.088-3.325,5.95c-4.017,1.29-3.781,6.842-6.413,9.52c-0.956,0.164-0.583-1.002-1.425-0.952
			c-0.666,1.396-1.688,2.434-2.85,3.332c-1.345,2.777-2.792,5.453-4.512,7.854c-0.887,0.254-0.677-0.591-1.425-0.476
			c-1.736,3.337-4.412,5.733-5.937,9.282c-2.081,0.771-2.5,3.207-5.225,3.332c-0.958-0.706-1.178-2.151-1.9-3.094
			c-0.674,0.753-0.828,2.026-2.375,1.904c-0.067,1.361-0.555,2.299-1.663,2.618c-2.207-0.962-2.072-4.271-4.512-4.998
			c-0.445,0.427-0.284,1.461-0.95,1.666c-3.58-0.116-7.959,0.8-10.212-0.476c-0.551,0.717-0.519,2.019-1.663,2.142
			c-1.242-0.183-0.974-1.88-2.138-2.142c-0.157,1.112-0.448,2.09-1.188,2.618c-1.142-0.159-0.857-0.509-2.137-0.238
			c-0.833-0.832-1.125-2.204-1.663-3.332c-0.543,1.374-3.166,1.817-3.8,0.476c-0.315,1.191-0.453,2.561-0.95,3.57
			c-2.571,0.435-1.221-3.061-3.087-3.332c-0.461,0.49-0.451,1.453-1.662,1.19c-1.25-0.256-0.586-2.428-1.9-2.618
			c-1.282,1.334-1.465,3.768-3.088,4.76c-0.901-0.207-0.482-1.738-1.425-1.904c-0.824-0.191-0.913,0.354-1.663,0.238
			c-0.976-1.401-1.438-3.318-1.9-5.236c0.239,0.716-0.529,0.422-0.95,0.476c0.031-0.587,0.036-1.146-0.238-1.428
			c-0.968-0.177-0.818,0.767-1.9,0.476c-0.296-1.845-2.039-2.241-1.9-4.521c-2.26,0.519-1.463-2.024-2.137-3.094
			c-0.406,0.386-0.865,0.721-1.663,0.714c-0.954-0.71-0.74-2.59-1.188-3.808c-1.308-0.435-1.942-1.545-2.138-3.094
			c-3.349-0.203-2.317-5.562-5.462-5.236c-0.404-0.468-0.273-1.472-0.712-1.904c-1.367,0.65-1.424-2.06-2.375-2.618
			c-0.559-0.005-0.699,0.41-1.425,0.238c-1.996-2.76-2.326-7.189-6.175-8.092c-1.536-3.767,0.083-8.621,0.475-12.614
			c0.747-0.273,0.577,0.373,0.95,0.476c0.148-6.595,3.076-10.404,2.85-17.374c0.454-0.338,0.85-0.735,1.188-1.19
			c1.382-5.914,1.906-12.688,4.275-17.612c0.392-1.432-0.051-3.7,1.188-4.284c0.75,0.596,0.848,1.847,1.425,2.618
			c2.95-1.248,1.475-6.932,4.513-8.092c1.14,0.603,2.298,1.188,3.562,1.666c0.853-2.358,3.797-4.094,6.413-2.618
			c0.962-1.892,0.876-4.834,3.087-5.474c0.956,0.708,2.554,0.773,3.087,1.904c0.15-1.198,0.726-1.97,1.663-2.38
			c0.834-0.14,0.781,1.125,1.425,0.476c0.098-1.648,0.282-3.208,1.663-3.57c1.468,0.432,0.959,2.846,1.9,3.808
			c0.39-1.831,0.62-3.821,1.9-4.76c1.508,0.73,2.606,0.824,3.8-0.238c0.832,0.118,0.576,1.327,1.188,1.666
			c0.149-2.39,0.886-4.19,2.375-5.236c1.223,0.837,0.852,3.272,1.9,4.284c0.721-1.261,0.756-3.21,1.663-4.284
			c1.032-0.082,1.326,0.576,2.138,0.714c0.4-0.63,0.549-1.512,0.95-2.142c0.237,0,0.475,0,0.712,0
			c0.315,1.192,1.397,1.614,3.087,1.428c1.133,1.852,3.129,1.398,4.513,2.857c0.334-0.46,0.129-1.457,1.188-1.191
			c1.188,0.952,1.694,2.586,3.325,3.094c1.021-0.008,0.797-1.264,2.138-0.952c0.637,0.79,0.569,2.285,1.188,3.094
			c2.9-1.607,3.887,2.531,7.362,1.904c0.665,0.92,1.105,2.066,1.9,2.856c0.148-0.725,0.527-1.217,1.425-1.19
			c1.619,0.877,3.146,0.72,4.512-0.238c1.235,0.746,1.024,2.94,1.662,4.284c1.99,0.577,3.638,2.386,6.175,1.666
			c0.244,0.866,0.748,1.472,0.95,2.38c1.529,0.025,1.349-1.663,2.85-1.666c0.575,0.217,0.628,0.956,0.712,1.666
			c0.631,0.002,1.356-0.09,1.662,0.238c1.624,6.068,2.743,12.642,4.038,19.04c-0.076,0.631,1.33-0.223,0.95,0.714
			c1.568,5.727,2.751,11.839,3.325,18.564c2.287,2.786,1.673,8.478,3.325,11.9C113.76,70.764,113.76,71.081,113.76,71.399z
			 M69.111,6.426c-1.482-0.656-1.872-2.408-3.325-3.094c-0.358,0.355-0.071,1.357-0.95,1.19c-0.894-0.629-1.087-1.474-2.612-0.952
			c-0.629-2.146-4.024-1.52-5.225-3.094c-0.741,0.368-0.27,1.95-1.425,1.904c-0.75-0.121-1.042-0.701-1.9-0.714
			c-0.677,1.385-0.531,3.593-1.9,4.284c-1.083-0.898-0.544-3.421-1.9-4.046c-1.312,1.225-1.506,3.569-2.375,5.236
			c-0.46-0.57-0.381-1.681-1.188-1.904c-0.549,1.461-2.533,0.916-3.562,0.238c-1.33,1.285-1.029,4.204-2.375,5.474
			c-0.264-1.797-0.311-3.814-1.663-4.522c-1.105,0.717-0.767,2.88-1.662,3.808c-0.746,0.112-0.627-0.641-1.188-0.714
			c-1.229,0.514-1.071,2.417-2.138,3.094c0.155-1.028-0.41-1.334-0.712-1.904c-1.333,0.383-1.308-0.593-2.137-0.714
			c-1.671,1.102-1.622,3.928-2.85,5.474c-1.202,0.173-1.406-0.653-2.375-0.714c-0.484,0.07-0.466,0.644-0.95,0.714
			c-1.439-0.094-1.679,1.014-2.375,1.666c-0.24,0.474-0.411,1.017-0.95,1.19c-0.866-0.878-2.374-1.112-3.562-1.666
			c-2.397,1.724-1.316,6.932-4.275,8.092c-0.772-0.655-0.723-2.131-1.663-2.618c-0.651,3.393-1.646,6.441-2.612,9.519
			c-0.543,0.407-0.087,1.817-0.237,2.618C7.775,38.017,7.36,42.599,5.7,45.933c-0.549,0.877-0.082,2.773-0.237,4.046
			c-0.307,0.882-0.388,1.992-0.475,3.094c-0.392,0.003-0.133,0.66-0.475,0.714c-1.146,2.263-1.338,5.481-1.662,8.568
			c-0.672-0.039,0.197,1.467-0.475,1.428c-0.053-0.185-0.006-0.469-0.237-0.476c0-0.079,0-0.158,0-0.238
			c-1.36-1.865-0.12,4.488-1.188,5.236c0,0.08,0,0.159,0,0.238c-0.395,0.566-0.395,2.766,0,3.332c0.042,1.068,0.411,1.809,0.95,2.38
			c0.821,0.193,1.002-0.444,1.425,0c0.555,1.982,2.644,2.428,2.375,5.236c0.963,0.543,1.685,1.326,1.9,2.618
			c0.996,0.284,0.424-1.003,0.95-1.19c0.316,1.508,1.685,1.961,1.9,3.57c0.552,0.632,0.636-0.631,1.188,0
			c-0.079,0.872,0.264,1.323,0.475,1.904c0.771-0.138,1.105,0.162,1.663,0.238c1.137,1.875,1.448,4.578,4.037,4.998
			c-0.187,0.98,0.365,1.221,0.238,2.142c2.7-0.088,1.277,3.956,3.087,4.76c0.431-0.441,1.151-0.592,1.425-1.19
			c0.486,0.386-0.011,1.756,0.475,2.142c-0.188,0.823,0.264,1.004,0.475,1.428c0.648,0.173,0.478-0.473,0.95-0.476
			c0.053,0.185,0.006,0.47,0.237,0.476c-0.139,2.281,1.604,2.677,1.9,4.522c0.746,0.113,0.627-0.641,1.188-0.714
			c0.064,0.491,1.051,0.057,0.95,0.714c0,0.238,0,0.476,0,0.714c0.883,0.25,0.466-0.802,0.95-0.952
			c0.053,0.185,0.006,0.469,0.237,0.476c-0.159,2.381,0.854,3.587,1.425,5.236c0.782-0.01,1.183-0.402,2.138-0.238
			c0.439,0.592,0.269,1.793,1.188,1.904c1.296-1.478,1.274-4.277,3.562-4.76c0.446,0.981,0.347,2.508,1.662,2.618
			c0.644-0.148,0.591-0.995,1.425-0.952c0.727,0.382,1.17,1.048,1.425,1.904c-0.459,1.243,1.391,2.081,1.425,0.714
			c0.569-1.096,0.353-2.979,1.188-3.808c0.208,0.664,0.569,1.176,0.713,1.904c1.413-0.329,2.605-0.88,3.325-1.904
			c-0.025,1.374,0.351,2.346,0.95,3.094c0.057,0.34,0.391,0.401,0.475,0.714c0.961-1.129,1.434,0.935,2.138-0.238
			c0.574-0.615,0.402-1.977,1.188-2.38c0.922,0.503,0.871,1.983,2.137,2.142c0.712-0.476,0.632-1.747,1.663-1.904
			c1.489,0.906,2.059,0.283,4.038,0.476c0.564,0.396,2.76,0.396,3.325,0c0.717-0.32,1.896-0.32,2.612,0
			c0.418-0.534,0.193-1.711,1.188-1.666c2.383,0.706,2.248,3.936,4.513,4.76c1.325-1.997,2.083-3.125,4.275-4.284
			c0.413,1.237,0.722,2.695,1.9,2.856c0.908,0.124,3.712-2.109,4.512-3.094c0.462-0.568,0.279-1.473,0.712-2.142
			c0.354-0.545,1.233-0.836,1.663-1.428c1.368-1.885,2.653-4.964,4.038-5.95c0.452,0.102,0.597,0.513,1.188,0.476
			c1.398-2.724,3.402-4.84,4.275-8.092c1.98-0.158,1.973-2.307,3.325-3.094c0.644,0.148,0.591,0.994,1.425,0.952
			c1.607-3.07,2.401-6.955,4.988-9.044c2.548-1.175,3.309-4.141,4.512-6.664c1.182-0.244,1.366-1.487,2.612-1.666
			c0.235-3.681-1.022-7.836-1.9-11.186c-0.247-1.339-0.911-2.261-1.187-3.57c-0.192-3.218-0.484-6.337-1.425-8.806
			c0.117-2.021,0.026-3.834-0.95-4.76c-0.447-0.979-0.337-2.518-0.712-3.57c-1.425,0.159-0.632-1.905-1.188-2.618
			c0-0.08,0-0.159,0-0.238c-0.44-1.225-0.745-2.586-0.95-4.046c0.018-0.415-0.053-0.74-0.238-0.952
			c-0.56-1.501-0.777-3.346-1.188-4.998c-0.109-2.826-0.627-5.242-1.662-7.14c-0.671-0.196-0.615,0.335-1.188,0.238
			c-0.319-0.553-0.393-1.352-0.712-1.904c-1.214,0.449-1.605,1.724-2.85,2.142c-0.11-1.08-0.967-1.411-0.95-2.618
			c-0.237,0-0.475,0-0.712,0c-1.327,0.447-1.917-1.08-2.85-0.238c-0.625,0.072-0.779-0.33-0.712-0.952
			c-3.386,0.379-1.88-4.145-4.037-4.998c-0.472,0.321,0.075,1.662-0.713,1.666c-0.185-0.053-0.276-0.2-0.237-0.476
			c-0.321-1.029-1.331-0.128-1.9,0c-0.305-0.408-0.491-0.936-1.188-0.952c-0.696,0.016-0.882,0.544-1.188,0.952
			c-0.052,0.186-0.199,0.276-0.475,0.238c-1.1-1.119-1.218-3.222-4.037-2.618c-1.081-1.473-3.034-3-5.462-2.142
			c-0.115-0.996-0.374-1.847-0.712-2.618C70.942,4.611,70.637,7.019,69.111,6.426z"/>
		<path fill-rule="evenodd" clip-rule="evenodd" fill="#8EB290" d="M70.061,6.664c0.624-0.171,0.9-1.408,1.663-0.714
			c0.339,0.771,0.597,1.623,0.712,2.618c2.428-0.858,4.381,0.669,5.462,2.142c2.819-0.604,2.937,1.499,4.037,2.618
			c0.276,0.039,0.423-0.052,0.475-0.238c0.484-0.07,0.466-0.644,0.95-0.714c0.894-0.103,1.082,0.502,1.425,0.952
			c0.639-0.103,1.218-0.893,1.9-0.238c-0.038,0.276,0.053,0.423,0.237,0.476c0.787-0.004,0.241-1.345,0.713-1.666
			c2.157,0.852,0.651,5.376,4.037,4.998c-0.067,0.623,0.087,1.024,0.712,0.952c0.159,0,0.317,0,0.475,0
			c-2.631,0.176-4.501-2.47-4.75-5.474c-0.92-0.129-0.205,1.38-0.95,1.428c-0.833-0.548-1.388-0.973-2.375-0.238
			c-0.485-0.308-0.432-1.154-1.425-0.952c-0.671,0.201-0.655,1.089-1.425,1.19c-0.882-0.703-1.318-1.853-1.9-2.856
			c-3.664,0.296-4.749-3.291-7.837-2.142c-0.205-0.985-0.637-1.741-0.712-2.856C70.699,5.735,70.456,7.272,70.061,6.664z"/>
		<path fill-rule="evenodd" clip-rule="evenodd" fill="#8EB290" d="M93.335,17.85c0.234,0.34,1.495,0.857,1.9,0.238
			c0.237,0,0.475,0,0.712,0c-0.017,1.206,0.84,1.538,0.95,2.618c1.245-0.418,1.636-1.693,2.85-2.142
			c0.319,0.553,0.393,1.352,0.712,1.904c0.572,0.097,0.516-0.435,1.188-0.238c1.035,1.898,1.553,4.314,1.662,7.14
			c0.113,1.95,0.214,3.911,1.188,4.998c0.184,0.212,0.255,0.538,0.238,0.952c-0.278,1.944,0.35,2.981,0.95,4.046
			c0,0.08,0,0.159,0,0.238c0.109,1.16-0.516,3.056,1.188,2.618c0.375,1.052,0.266,2.59,0.712,3.57c0.398,1.505,0.79,3.016,0.95,4.76
			c0.94,2.469,1.232,5.587,1.425,8.806c-0.291,1.957,1.225,2.105,0.712,4.284c0.507,0.111,0.453-0.34,0.475-0.714
			c0.877,3.35,2.135,7.505,1.9,11.186c-1.246,0.179-1.431,1.422-2.612,1.666c-1.203,2.523-1.964,5.489-4.512,6.664
			c-2.586,2.089-3.381,5.974-4.988,9.044c-0.834,0.043-0.781-0.804-1.425-0.952c-1.352,0.787-1.345,2.936-3.325,3.094
			c-0.872,3.251-2.877,5.368-4.275,8.092c-0.591,0.037-0.735-0.374-1.188-0.476c-1.384,0.986-2.67,4.065-4.038,5.95
			c-0.429,0.592-1.309,0.883-1.663,1.428c-0.434,0.669-0.251,1.574-0.712,2.142c-0.8,0.984-3.604,3.218-4.512,3.094
			c-1.178-0.161-1.487-1.619-1.9-2.856c-2.192,1.16-2.95,2.287-4.275,4.284c-2.265-0.825-2.13-4.054-4.513-4.76
			c-0.994-0.045-0.77,1.132-1.188,1.666c-0.717-0.32-1.895-0.32-2.612,0c-0.475,0-0.95,0-1.425,0c1.239-0.192,2.528-1.042,3.8-0.476
			c0.432-0.599,0.431-1.63,1.425-1.665c2.399,0.769,2.474,3.868,4.513,4.997c0.679-0.589,0.674-1.863,1.188-2.618
			c1.798,0.215,1.465-1.705,2.85-1.904c1.055,0.688,0.887,2.602,2.138,3.094c5.266-2.577,6.826-8.867,10.925-12.614
			c0.731-0.177,0.457,0.653,1.188,0.476c2.062-4.359,4.246-8.597,7.837-11.424c0.771,0.021,0.167,1.419,1.187,1.19
			c0.985-3.614,2.404-6.793,4.75-9.044c3.577-1.334,2.926-6.905,6.887-7.854c0.98-3.028-1.347-6.266-1.187-9.996
			c-0.227-0.408-0.789-0.479-0.95-0.952c-0.844-5.184-1.876-10.178-2.375-15.708c-1.002-1.218-1.276-3.164-1.425-5.236
			c-0.746,0.113-0.971-0.297-1.188-0.714c-1.113-6.501-2.552-12.674-3.8-19.039c-0.551-0.076-0.912,0.038-1.188,0.238
			c-0.599-0.432-0.498-1.563-1.188-1.904c-0.502,0.924-1.285,1.569-2.375,1.904c-0.764-0.663-0.771-2.084-1.662-2.618
			C94.78,18.919,93.337,18.499,93.335,17.85z"/>
		<path fill-rule="evenodd" clip-rule="evenodd" fill="#8EB290" d="M69.586,6.664c-0.006,0.231-0.29,0.184-0.475,0.238
			c-1.206-0.853-2.236-1.884-3.087-3.094c-0.181,0.612-0.577,1.008-1.188,1.19c-1.473-1.342-3.279-1.271-4.75-2.856
			c-1.625,0.201-2.252-0.599-3.087-1.19c-0.199,0.911-0.559,1.66-1.425,1.904c-0.594-0.198-0.933-0.652-1.663-0.714
			c-0.541,1.6-0.714,3.568-2.137,4.284c-1.188-0.793-1.023-2.941-1.9-4.046c-1.345,1.191-0.867,4.208-2.375,5.236
			C46.9,7.185,46.91,6.144,46.311,5.712c-0.491,1.391-2.555,0.929-3.562,0.238c-1.078,1.538-0.672,4.563-2.375,5.474
			c-0.933-1.128-0.376-3.749-1.663-4.522c-0.843,0.979-0.344,3.305-1.662,3.808c-0.761-0.204-0.837-0.923-1.663-0.476
			c-0.651,0.775-0.295,2.561-1.663,2.618c-0.597-0.194-0.331-1.254-0.712-1.666c-1.224,0.275-1.405-0.496-2.137-0.714
			c-1.623,1.229-1.194,4.516-3.087,5.474c-2.77-1.847-4.835,1.128-6.413,2.618c-1.2-0.542-2.335-1.15-3.562-1.666
			c-1.974,2.147-1.017,7.232-4.275,8.092c-0.849-0.26-0.794-1.426-1.425-1.904c-0.237,1.112-0.588,2.108-0.475,3.57
			c-0.352,0.124-0.599,0.352-0.95,0.476c-1.538,6.234-1.972,13.573-4.75,18.564c0.048,4.094-0.427,7.664-1.187,10.948
			c-0.656,0.102-0.223-0.887-0.712-0.952c-0.313,3.256-0.664,6.475-1.425,9.282c-0.748,0.115-0.178-1.091-0.712-1.19
			c0.298,3.807-1.753,7.081,0,10.234c0.551,0.076,0.912-0.038,1.188-0.238c2.151,1.97,2.952,5.292,4.75,7.616
			c0.28-0.354,0.206-1.063,0.95-0.952c0.437,1.546,1.646,2.317,2.138,3.808c0.103-0.293,0.304-0.489,0.712-0.476
			c0.492,0.618,0.289,1.932,0.95,2.38c3.008-0.633,1.887,4.93,4.987,4.998c0.655,0.613,0.608,1.93,1.188,2.618
			c0.038-0.279,0.433-0.201,0.712-0.238c0.646,1.336,1.069,2.895,1.425,4.522c1.159,0.13,0.919-1.142,1.9-1.19
			c0.518,0.909,0.523,2.332,0.713,3.57c0.731,0.177,0.456-0.653,1.187-0.476c0.096,2.205,1.658,2.94,1.9,4.998
			c1.184-1.003,2.067,0.203,3.325-0.238c0.622,1.994,0.605,4.629,1.9,5.95c0.148-0.565,1.462,0.037,1.663-0.476
			c0.608,0.501,0.599,1.621,1.188,2.142c0.878-1.818,1.261-4.131,3.325-4.76c1.249,0.255,0.586,2.428,1.9,2.618
			c0.515-0.356,0.553-1.191,1.425-1.19c1.011,0.732,1.96,1.527,1.9,3.332c1.488-0.651,0.684-3.599,2.137-4.284
			c0.717,0.233,0.49,1.413,1.188,1.665c1.256-0.328,1.977-1.192,2.85-1.904c0.652,1.092,0.57,2.919,1.425,3.808
			c1.025-0.664,0.875-0.095,1.9,0.238c0.433-0.916,0.26-2.437,1.425-2.618c1.242,0.183,0.974,1.88,2.137,2.142
			c0.551-0.717,0.519-2.019,1.663-2.142c1.647,1.134,3.14,0.019,5.462,0.952c-0.475,0-0.95,0-1.425,0
			c-1.979-0.193-2.549,0.43-4.038-0.476c-1.03,0.158-0.95,1.428-1.663,1.904c-1.267-0.159-1.215-1.639-2.137-2.142
			c-0.785,0.403-0.614,1.765-1.188,2.38c-1.082-0.094-1.573-0.062-2.612-0.476c-0.599-0.748-0.976-1.72-0.95-3.094
			c-0.72,1.024-1.912,1.575-3.325,1.904c-0.144-0.728-0.504-1.24-0.713-1.904c-0.835,0.829-0.619,2.712-1.188,3.808
			c-0.258,0.059-0.161,0.473-0.475,0.476c-0.996,0.283-0.424-1.004-0.95-1.191c-0.254-0.855-0.698-1.521-1.425-1.904
			c-0.834-0.042-0.781,0.804-1.425,0.952c-1.315-0.11-1.216-1.637-1.662-2.618c-2.289,0.483-2.267,3.282-3.562,4.76
			c-0.919-0.111-0.748-1.312-1.188-1.904c-0.955-0.164-1.356,0.228-2.138,0.238c-0.571-1.649-1.584-2.855-1.425-5.236
			c0.114-0.99-1.099-0.878-0.712,0.238c-0.258-0.059-0.161-0.473-0.475-0.476c0.102-0.657-0.885-0.223-0.95-0.714
			c-0.56,0.073-0.442,0.827-1.188,0.714c-0.297-1.845-2.039-2.241-1.9-4.522c0-0.159,0-0.317,0-0.476
			c-0.356-0.787-0.58,0.495-1.187,0.238c-0.41-0.145,0.018-1.129-0.475-1.19c-0.486-0.386,0.011-1.756-0.475-2.142
			c-0.274,0.598-0.994,0.749-1.425,1.19c-1.81-0.804-0.387-4.848-3.087-4.76c0.127-0.921-0.424-1.162-0.238-2.142
			c-2.589-0.42-2.9-3.123-4.037-4.998c-0.558-0.076-0.892-0.376-1.663-0.238c-0.211-0.582-0.554-1.032-0.475-1.904
			c-0.552-0.631-0.636,0.632-1.188,0c-0.215-1.608-1.583-2.062-1.9-3.57c-0.526,0.187,0.045,1.474-0.95,1.19
			c-0.215-1.291-0.937-2.075-1.9-2.618c0.269-2.808-1.82-3.253-2.375-5.236c-0.422-0.444-0.604,0.193-1.425,0
			c-0.539-0.571-0.908-1.312-0.95-2.38c0-1.111,0-2.222,0-3.332c0-0.08,0-0.159,0-0.238c1.251-0.809,0.518-3.606,0.712-5.474
			c0.192,0.045,0.237,0.239,0.475,0.238c0,0.08,0,0.159,0,0.238c0.217,0.417,0.082,1.188,0.475,1.428
			c0.541-0.33,0.089-1.657,0.238-2.38c0.324-3.087,0.516-6.305,1.662-8.568c0.239,0.792-0.525,2.589,0.475,2.618
			c0-1.111,0-2.222,0-3.332c0.087-1.103,0.168-2.212,0.475-3.094c0.549-0.877,0.082-2.773,0.237-4.046
			c1.66-3.335,2.075-7.916,3.325-11.662c0.543-0.407,0.087-1.817,0.237-2.618c0.966-3.078,1.961-6.127,2.612-9.519
			c0.94,0.486,0.891,1.963,1.663,2.618c2.959-1.16,1.878-6.368,4.275-8.092c1.188,0.554,2.696,0.788,3.562,1.666
			c0.54-0.173,0.711-0.716,0.95-1.19c0.795-0.552,1.286-1.409,2.375-1.666c0.484-0.07,0.466-0.644,0.95-0.714
			c0.969,0.06,1.173,0.887,2.375,0.714c1.228-1.546,1.179-4.372,2.85-5.474c0.829,0.121,0.805,1.097,2.137,0.714
			c0.302,0.57,0.867,0.876,0.712,1.904c1.066-0.677,0.909-2.58,2.138-3.094c0.56,0.073,0.442,0.826,1.188,0.714
			c0.895-0.928,0.557-3.091,1.662-3.808c1.352,0.708,1.398,2.725,1.663,4.522c1.346-1.269,1.045-4.189,2.375-5.474
			c1.029,0.677,3.013,1.222,3.562-0.238c0.807,0.223,0.727,1.334,1.188,1.904c0.869-1.667,1.063-4.011,2.375-5.236
			c1.356,0.625,0.817,3.148,1.9,4.046c1.369-0.69,1.223-2.899,1.9-4.284c0.858,0.013,1.149,0.593,1.9,0.714
			c1.155,0.046,0.684-1.536,1.425-1.904c1.201,1.573,4.596,0.948,5.225,3.094c1.525-0.521,1.718,0.323,2.612,0.952
			c0.879,0.167,0.592-0.834,0.95-1.19c1.453,0.686,1.842,2.437,3.325,3.094C69.118,6.657,69.402,6.61,69.586,6.664z"/>
		<path fill-rule="evenodd" clip-rule="evenodd" fill="#B4C9B2" d="M69.111,6.426c1.526,0.593,1.831-1.814,2.613-0.476
			c-0.763-0.694-1.038,0.543-1.663,0.714c-0.158,0-0.317,0-0.475,0C69.402,6.61,69.118,6.657,69.111,6.426z"/>
		<path fill-rule="evenodd" clip-rule="evenodd" fill="#B4C9B2" d="M82.411,13.09c0.306-0.408,0.491-0.936,1.188-0.952
			c0.696,0.016,0.882,0.544,1.188,0.952c0.569-0.128,1.579-1.029,1.9,0c-0.682-0.655-1.261,0.135-1.9,0.238
			c-0.343-0.449-0.531-1.055-1.425-0.952C82.876,12.446,82.895,13.019,82.411,13.09z"/>
		<path fill-rule="evenodd" clip-rule="evenodd" fill="#B4C9B2" d="M22.325,17.136c0.695-0.652,0.935-1.76,2.375-1.666
			C23.61,15.727,23.12,16.584,22.325,17.136z"/>
		<path fill-rule="evenodd" clip-rule="evenodd" fill="#B4C9B2" d="M92.385,17.85c0.934-0.842,1.523,0.685,2.85,0.238
			c-0.405,0.619-1.666,0.101-1.9-0.238c-0.158,0-0.317,0-0.475,0C92.702,17.85,92.544,17.85,92.385,17.85z"/>
		<path fill-rule="evenodd" clip-rule="evenodd" fill="#B4C9B2" d="M103.31,27.37c0.411,1.651,0.628,3.496,1.188,4.998
			C103.524,31.28,103.423,29.319,103.31,27.37z"/>
		<path fill-rule="evenodd" clip-rule="evenodd" fill="#B4C9B2" d="M104.735,33.319c0.205,1.46,0.51,2.821,0.95,4.046
			C105.085,36.301,104.457,35.264,104.735,33.319z"/>
		<path fill-rule="evenodd" clip-rule="evenodd" fill="#B4C9B2" d="M105.685,37.604c0.556,0.712-0.238,2.777,1.188,2.618
			C105.169,40.66,105.794,38.763,105.685,37.604z"/>
		<path fill-rule="evenodd" clip-rule="evenodd" fill="#B4C9B2" d="M107.585,43.791c0.976,0.926,1.067,2.739,0.95,4.76
			C108.375,46.807,107.983,45.296,107.585,43.791z"/>
		<path fill-rule="evenodd" clip-rule="evenodd" fill="#B4C9B2" d="M109.96,57.357c0.277,1.309,0.94,2.231,1.187,3.57
			c-0.022,0.374,0.032,0.825-0.475,0.714C111.185,59.462,109.669,59.314,109.96,57.357z"/>
		<path fill-rule="evenodd" clip-rule="evenodd" fill="#B4C9B2" d="M0.95,68.305c1.068-0.748-0.172-7.101,1.188-5.236
			c-0.238,0.001-0.283-0.193-0.475-0.238C1.468,64.699,2.201,67.496,0.95,68.305z"/>
		<path fill-rule="evenodd" clip-rule="evenodd" fill="#B4C9B2" d="M2.138,63.307c0.231,0.007,0.184,0.292,0.237,0.476
			c0.672,0.039-0.197-1.467,0.475-1.428c-0.149,0.723,0.304,2.05-0.238,2.38C2.219,64.494,2.354,63.724,2.138,63.307z"/>
		<path fill-rule="evenodd" clip-rule="evenodd" fill="#B4C9B2" d="M23.037,99.482c0.493,0.061,0.065,1.045,0.475,1.19
			c0.607,0.256,0.831-1.025,1.187-0.238c0,0.159,0,0.317,0,0.476c-0.231-0.006-0.184-0.291-0.237-0.476
			c-0.472,0.003-0.302,0.649-0.95,0.476C23.301,100.487,22.849,100.305,23.037,99.482z"/>
		<path fill-rule="evenodd" clip-rule="evenodd" fill="#B4C9B2" d="M28.737,105.432c0.314,0.003,0.217,0.417,0.475,0.476
			c-0.387-1.117,0.826-1.228,0.712-0.238c-0.231-0.006-0.184-0.291-0.237-0.476c-0.484,0.149-0.067,1.202-0.95,0.952
			C28.737,105.908,28.737,105.67,28.737,105.432z"/>
		<path fill-rule="evenodd" clip-rule="evenodd" fill="#B4C9B2" d="M42.749,111.382c0.526,0.187-0.045,1.474,0.95,1.191
			c0.313-0.003,0.217-0.418,0.475-0.476C44.14,113.462,42.29,112.625,42.749,111.382z"/>
		<path fill-rule="evenodd" clip-rule="evenodd" fill="#B4C9B2" d="M50.349,111.382c1.04,0.414,1.531,0.382,2.612,0.476
			c-0.704,1.173-1.177-0.891-2.138,0.238C50.74,111.783,50.406,111.722,50.349,111.382z"/>
	</g>
</g>
</svg>
