<?xml version="1.0" encoding="utf-8"?>
<!-- Generator: Adobe Illustrator 17.1.0, SVG Export Plug-In . SVG Version: 6.00 Build 0)  -->
<!DOCTYPE svg PUBLIC "-//W3C//DTD SVG 1.1//EN" "http://www.w3.org/Graphics/SVG/1.1/DTD/svg11.dtd">
<svg version="1.1" id="Layer_1" xmlns="http://www.w3.org/2000/svg" xmlns:xlink="http://www.w3.org/1999/xlink" x="0px" y="0px"
	 viewBox="0 0 113.557 113.876" enable-background="new 0 0 113.557 113.876" xml:space="preserve">
<path opacity="0.65" fill="#BBD469" d="M31.51,110.71c0.602,1.229,1.203-0.015,1.805,0.434c0.301,1.527,0.602,1.746,0.902,2.121
	c0.301-0.982,0.602-1.397,0.902-2.555c0.601,0.58,1.203-3.104,1.805-2.254c0.602-0.65,1.203-0.389,1.805,2.254
	c0.602,0.586,1.203,0.452,1.805-1.229c0.602,0.139,1.203,1.606,1.805,1.229c0.301,2.631,0.602,3.408,0.902,1.687
	c0.301,2.881,0.602-2.023,0.902-1.803c0.301,0.065,0.602-3.647,0.902-1.909c0.301,0.146,0.601,1.098,0.902,2.025
	c0.602-1.127,1.203-0.771,1.805-0.691c0.602-0.41,1.203-3.828,1.805,0.691c0.603,1.172,1.204,2.934,1.806,0.794
	c0.602,1.343,1.203,2.228,1.805-0.794c1.203-3.762,2.406,4.792,3.609,0c0.602-1.348,1.203-0.779,1.805-0.074
	c0.601,0.532,1.203-1.252,1.805,0.074c1.204-0.641,2.407,0.701,3.61,0c1.204,0.437,2.407-1.303,3.611,0
	c1.204-4.42,2.407-0.359,3.61,0c1.203,2.414,2.406,5.719,3.609,0c1.203,2.343,2.407-4.137,3.61,0c1.204,3.34,2.407,1.158,3.61,0
	c1-1.445,2.001,0.111,3.001-3.763c1,0.405,2.001-2.96,3.001-3.763c1-1.291,2.001-3.458,3.001-3.764c1,2.373,2.001-1.012,3.001-3.764
	c1,1.717,2-5.447,3.001-3.762c1.001-1.381,2.001-2.535,3.001-3.764c1.001,4.719,2-0.785,3.001-3.764
	c1-1.075,2.001-2.521,3.001-3.763c1,0.104,2.001-1.249,3.001-3.763c0.75,0.225,1.5-4.047,2.25-2.822
	c0.75-2.697,1.5,0.523,2.25-2.822c-0.268-3.047-0.535,0.062-0.803-3.52c-0.267-1.158-0.535-3.67-0.803-3.521
	c-0.179-2.466-0.357-4.666-0.536-1.734c-0.178,1.366-0.356-0.569-0.535-2.958c-0.179,1.918-0.357,2.314-0.535-0.991
	c-0.179,0.567-0.357-4.462-0.536-3.701c-0.179-3.054-0.356-3.269-0.535-3.679c-0.179-0.983-0.358-3.828-0.536-1.014
	c-0.178-4.883-0.356-7.277-0.535-4.013c-0.179,1.924-0.357-5.317-0.535-0.679c-0.179-3.638-0.357-2.631-0.536-3.816
	c-0.179-3.836-0.357-0.533-0.535-0.877c-0.179-2.545-0.357,7.352-0.536-1.346c-0.179-2.81-0.357-2.006-0.535-3.346
	c-0.179,2.025-0.357,1.483-0.536-1.602c-0.179-4.261-0.356,0.354-0.535-3.09c-0.179,3.499-0.358-0.337-0.536-1.608
	c-0.178,1.693-0.356-1.426-0.535-3.084c-0.179-0.871-0.356-1.207-0.535-3.732c-0.178-0.955-0.356-1.934-0.535-0.959
	c-0.723-4.09-1.445,0.761-2.168-2.539c-0.723-2.66-1.445,1.877-2.168,0.451c-0.723,2.108-1.445,0.057-2.168-1.85
	c-0.724-0.236-1.446,0.735-2.169-0.239c-0.723-0.98-1.445,1.417-2.169-0.971c-0.723,0.36-1.445-0.465-2.168-1.118
	c-0.723-4.178-1.445-5.484-2.168-1.454c-0.723-2.527-1.445-2.077-2.168-0.634c-0.723-1.703-1.445-1.914-2.168-1.061
	c-0.723,1.918-1.445,0.454-2.168-1.027c-0.723-1.47-1.445-1.147-2.169-1.045c-0.723,0.946-1.445-1.866-2.168-1.043
	c-0.723-0.022-1.445-2.211-2.169-0.854c-0.723-1.635-1.445,1.902-2.168-1.235c-0.723-4.583-1.445,0.13-2.168-1.089
	c-0.723,0.545-1.445-0.389-2.168-1c-0.723,1.059-1.445-4.143-2.168-1.189c-0.724,1.133-1.446-0.329-2.169-0.898
	c-1.084,1.602-2.168-1.299-3.252-1.566c-1.084,0-2.168,0.363-3.252-1.567c-1.084,4.354-2.168,1.295-3.252,1.567
	c-1.084,4.339-2.168,6.5-3.252,1.565c-0.723-4.25-1.446,1.528-2.169,1.112c-0.723,6.833-1.445,0.557-2.168,0.977
	c-0.723,2.426-1.445-0.705-2.168,1.443c-0.723-1.142-1.445-2.398-2.169,0.645c-0.723,1.359-1.445,7.451-2.169,1.045
	c-0.723-2.283-1.445-3.362-2.168,1.043c-0.723,2.57-1.445-0.926-2.168,0.461c-0.724-0.535-1.446,5.301-2.169,1.628
	c-0.723-2.015-1.445,0.571-2.169-1.614c-0.723,0.025-1.445,0.936-2.168,3.703c-1.445,4.576-2.892-0.732-4.337,2.088
	c-0.723-0.62-1.445,0.162-2.168,0.971c-0.723,2.107-1.445,1.863-2.168,1.117c-0.724-0.615-1.446-0.46-2.169-0.923
	c-0.723-1.671-1.445,1.343-2.168,3.012c-0.723,3.942-1.445,3.956-2.168,4.873c-0.723,0.438-1.445-0.656-2.168-2.784
	c-0.178,1.729-0.356,2.617-0.535,3.432c-0.179,1.976-0.356,3.275-0.535,1.26c-0.179,0.338-0.357-0.367-0.535,1.926
	c-0.179-0.984-0.357,1.835-0.536,2.768c-0.179-0.2-0.357-1.547-0.535,0.715c-0.179,3.736-0.357,2.57-0.536,3.977
	c-0.179,1.123-0.357-0.644-0.535,1.951c-0.179,0.988-0.357,2.304-0.536,2.742c-0.179,2.051-0.358-0.646-0.536,1.14
	c-0.178,1.601-0.356,5.085-0.535,3.552c-0.178-2.59-0.357,1.443-0.535,0.59c-0.179-2.514-0.357-0.716-0.535,4.104
	c-0.179,1.871-0.357,1.842-0.535,3.38c-0.179,2.817-0.357,7.811-0.536,1.312c-0.179-3.876-0.357,4.899-0.535,0.46
	c-0.179,0.407-0.357,4.327-0.536,4.233c-0.179,1.303-0.357-0.695-0.536,3.228c-0.178,4.385-0.357,4.509-0.535,1.464
	c-0.134,2.946-0.268-2.484-0.401,0.184c-0.134-3.905-0.267-3.16-0.401,3.336c-0.134,2.344-0.268,0.167-0.401,0.32
	C0.268,70.222,0.134,66.784,0,71.198c0.75,4.154,1.5,3.8,2.25,2.822c0.751,2.653,1.501,1.181,2.251,2.822
	c0.5,2.453,1,3.917,1.5,3.468c0.501-1.741,1.001,5.223,1.501,0.295c0.5-1.263,1,3.968,1.501,1.557c0.5,1.544,1,3.685,1.5,2.206
	c0.5-2.271,1,5.44,1.5,1c0.501,2.698,1.001-0.172,1.501,2.764c0.5-2.871,1,3.734,1.501,2.082c0.5,1.543,1,1.851,1.5,1.682
	c0.5-2.171,1,3.151,1.5,2.448c0.501-1.431,1.001,0.786,1.501,1.313c0.5,4.933,1,2.723,1.501,2.727c0.5,0.731,1-3.385,1.5,1.037
	c0.5,3.965,1,0.66,1.5,1.01c0.5,3.654,1,3.992,1.501,2.754c0.5,3.58,1,3.072,1.501,1.479c0.5,2.27,1-1.829,1.5,2.284
	c0.25-2.956,0.5-1.37,0.75-1.371c0.25-1.128,0.5,4.104,0.75,3.081C30.51,109.77,31.01,112.895,31.51,110.71z"/>
</svg>
