<?xml version="1.0" encoding="utf-8"?>
<!-- Generator: Adobe Illustrator 17.1.0, SVG Export Plug-In . SVG Version: 6.00 Build 0)  -->
<!DOCTYPE svg PUBLIC "-//W3C//DTD SVG 1.1//EN" "http://www.w3.org/Graphics/SVG/1.1/DTD/svg11.dtd">
<svg version="1.1" id="Layer_1" xmlns="http://www.w3.org/2000/svg" xmlns:xlink="http://www.w3.org/1999/xlink" x="0px" y="0px"
	 viewBox="0 0 173.374 173.374" enable-background="new 0 0 173.374 173.374" xml:space="preserve">
<rect x="0.25" y="0.25" fill="none" stroke="#000000" stroke-width="0.5" stroke-miterlimit="10" width="172.874" height="172.874"/>
<linearGradient id="SVGID_1_" gradientUnits="userSpaceOnUse" x1="12.1347" y1="86.687" x2="161.2392" y2="86.687">
	<stop  offset="0" style="stop-color:#FFFFFF;stop-opacity:0.2"/>
	<stop  offset="1" style="stop-color:#FFFFFF;stop-opacity:0.2"/>
</linearGradient>
<rect x="12.135" y="12.135" fill="url(#SVGID_1_)" stroke="#101010" stroke-width="0.5" stroke-miterlimit="10" width="149.104" height="149.105"/>
<line fill="none" stroke="#000000" stroke-width="0.5" stroke-miterlimit="10" x1="161.239" y1="12.135" x2="12.135" y2="161.239"/>
<line fill="none" stroke="#000000" stroke-width="0.5" stroke-miterlimit="10" x1="12.135" y1="12.135" x2="161.239" y2="161.239"/>
<line fill="none" stroke="#000000" stroke-width="0.5" stroke-miterlimit="10" x1="32.173" y1="141.201" x2="73.057" y2="141.201"/>
<line fill="none" stroke="#000000" stroke-width="0.5" stroke-miterlimit="10" x1="25.156" y1="148.218" x2="62.723" y2="148.218"/>
<line fill="none" stroke="#000000" stroke-width="0.5" stroke-miterlimit="10" x1="39.006" y1="134.368" x2="61.057" y2="134.368"/>
<line fill="none" stroke="#000000" stroke-width="0.5" stroke-miterlimit="10" x1="141.202" y1="32.301" x2="100.318" y2="32.301"/>
<line fill="none" stroke="#000000" stroke-width="0.5" stroke-miterlimit="10" x1="148.219" y1="25.284" x2="110.652" y2="25.284"/>
<line fill="none" stroke="#000000" stroke-width="0.5" stroke-miterlimit="10" x1="134.369" y1="39.134" x2="112.318" y2="39.134"/>
<line fill="none" stroke="#000000" stroke-width="0.5" stroke-miterlimit="10" x1="141.471" y1="141.266" x2="141.471" y2="100.382"/>
<line fill="none" stroke="#000000" stroke-width="0.5" stroke-miterlimit="10" x1="148.487" y1="148.282" x2="148.487" y2="110.716"/>
<line fill="none" stroke="#000000" stroke-width="0.5" stroke-miterlimit="10" x1="134.637" y1="134.433" x2="134.637" y2="112.382"/>
<line fill="none" stroke="#000000" stroke-width="0.5" stroke-miterlimit="10" x1="32.57" y1="32.236" x2="32.57" y2="73.12"/>
<line fill="none" stroke="#000000" stroke-width="0.5" stroke-miterlimit="10" x1="25.554" y1="25.22" x2="25.554" y2="62.786"/>
<line fill="none" stroke="#000000" stroke-width="0.5" stroke-miterlimit="10" x1="39.404" y1="39.069" x2="39.404" y2="61.12"/>
<line fill="none" stroke="#000000" stroke-width="0.5" stroke-miterlimit="10" x1="101.053" y1="101.053" x2="89.391" y2="101.053"/>
<line fill="none" stroke="#000000" stroke-width="0.5" stroke-miterlimit="10" x1="105.738" y1="105.738" x2="80.391" y2="105.738"/>
<line fill="none" stroke="#000000" stroke-width="0.5" stroke-miterlimit="10" x1="110.652" y1="110.652" x2="86.688" y2="110.652"/>
<line fill="none" stroke="#000000" stroke-width="0.5" stroke-miterlimit="10" x1="72.322" y1="72.321" x2="83.984" y2="72.321"/>
<line fill="none" stroke="#000000" stroke-width="0.5" stroke-miterlimit="10" x1="67.637" y1="67.636" x2="92.984" y2="67.636"/>
<line fill="none" stroke="#000000" stroke-width="0.5" stroke-miterlimit="10" x1="62.723" y1="62.722" x2="86.688" y2="62.722"/>
<line fill="none" stroke="#000000" stroke-width="0.5" stroke-miterlimit="10" x1="101.853" y1="71.156" x2="101.853" y2="82.818"/>
<line fill="none" stroke="#000000" stroke-width="0.5" stroke-miterlimit="10" x1="106.538" y1="66.47" x2="106.538" y2="91.818"/>
<line fill="none" stroke="#000000" stroke-width="0.5" stroke-miterlimit="10" x1="111.452" y1="61.556" x2="111.452" y2="85.521"/>
<line fill="none" stroke="#000000" stroke-width="0.5" stroke-miterlimit="10" x1="71.522" y1="102.218" x2="71.522" y2="90.556"/>
<line fill="none" stroke="#000000" stroke-width="0.5" stroke-miterlimit="10" x1="66.837" y1="106.904" x2="66.837" y2="81.556"/>
<line fill="none" stroke="#000000" stroke-width="0.5" stroke-miterlimit="10" x1="61.923" y1="111.818" x2="61.923" y2="87.853"/>
</svg>
