<?xml version="1.0" encoding="utf-8"?>
<!-- Generator: Adobe Illustrator 17.1.0, SVG Export Plug-In . SVG Version: 6.00 Build 0)  -->
<!DOCTYPE svg PUBLIC "-//W3C//DTD SVG 1.1//EN" "http://www.w3.org/Graphics/SVG/1.1/DTD/svg11.dtd">
<svg version="1.1" id="Layer_1" xmlns="http://www.w3.org/2000/svg" xmlns:xlink="http://www.w3.org/1999/xlink" x="0px" y="0px"
	 viewBox="0 0 173.874 173.874" enable-background="new 0 0 173.874 173.874" xml:space="preserve">
<rect x="0.5" y="0.5" fill="none" stroke="#000000" stroke-miterlimit="10" width="172.874" height="172.874"/>
<rect x="12.385" y="12.385" fill="#FFFFFF" stroke="#000000" stroke-miterlimit="10" width="149.104" height="149.105"/>
<line fill="none" stroke="#000000" stroke-miterlimit="10" x1="161.489" y1="12.385" x2="12.385" y2="161.489"/>
<line fill="none" stroke="#000000" stroke-miterlimit="10" x1="12.385" y1="12.385" x2="161.489" y2="161.489"/>
<line fill="none" stroke="#000000" stroke-miterlimit="10" x1="32.423" y1="141.451" x2="73.307" y2="141.451"/>
<line fill="none" stroke="#000000" stroke-miterlimit="10" x1="25.406" y1="148.468" x2="62.973" y2="148.468"/>
<line fill="none" stroke="#000000" stroke-miterlimit="10" x1="39.256" y1="134.618" x2="61.307" y2="134.618"/>
<line fill="none" stroke="#000000" stroke-miterlimit="10" x1="141.452" y1="32.551" x2="100.568" y2="32.551"/>
<line fill="none" stroke="#000000" stroke-miterlimit="10" x1="148.469" y1="25.534" x2="110.902" y2="25.534"/>
<line fill="none" stroke="#000000" stroke-miterlimit="10" x1="134.619" y1="39.384" x2="112.568" y2="39.384"/>
<line fill="none" stroke="#000000" stroke-miterlimit="10" x1="141.721" y1="141.516" x2="141.721" y2="100.632"/>
<line fill="none" stroke="#000000" stroke-miterlimit="10" x1="148.737" y1="148.532" x2="148.737" y2="110.966"/>
<line fill="none" stroke="#000000" stroke-miterlimit="10" x1="134.887" y1="134.683" x2="134.887" y2="112.632"/>
<line fill="none" stroke="#000000" stroke-miterlimit="10" x1="32.82" y1="32.486" x2="32.82" y2="73.37"/>
<line fill="none" stroke="#000000" stroke-miterlimit="10" x1="25.804" y1="25.47" x2="25.804" y2="63.036"/>
<line fill="none" stroke="#000000" stroke-miterlimit="10" x1="39.654" y1="39.319" x2="39.654" y2="61.37"/>
<line fill="none" stroke="#000000" stroke-miterlimit="10" x1="101.303" y1="101.303" x2="89.641" y2="101.303"/>
<line fill="none" stroke="#000000" stroke-miterlimit="10" x1="105.988" y1="105.988" x2="80.641" y2="105.988"/>
<line fill="none" stroke="#000000" stroke-miterlimit="10" x1="110.902" y1="110.902" x2="86.938" y2="110.902"/>
<line fill="none" stroke="#000000" stroke-miterlimit="10" x1="72.572" y1="72.571" x2="84.234" y2="72.571"/>
<line fill="none" stroke="#000000" stroke-miterlimit="10" x1="67.887" y1="67.886" x2="93.234" y2="67.886"/>
<line fill="none" stroke="#000000" stroke-miterlimit="10" x1="62.973" y1="62.972" x2="86.938" y2="62.972"/>
<line fill="none" stroke="#000000" stroke-miterlimit="10" x1="102.103" y1="71.406" x2="102.103" y2="83.068"/>
<line fill="none" stroke="#000000" stroke-miterlimit="10" x1="106.788" y1="66.72" x2="106.788" y2="92.068"/>
<line fill="none" stroke="#000000" stroke-miterlimit="10" x1="111.702" y1="61.806" x2="111.702" y2="85.771"/>
<line fill="none" stroke="#000000" stroke-miterlimit="10" x1="71.772" y1="102.468" x2="71.772" y2="90.806"/>
<line fill="none" stroke="#000000" stroke-miterlimit="10" x1="67.087" y1="107.154" x2="67.087" y2="81.806"/>
<line fill="none" stroke="#000000" stroke-miterlimit="10" x1="62.173" y1="112.068" x2="62.173" y2="88.103"/>
</svg>
