<?xml version="1.0" encoding="utf-8"?>
<!-- Generator: Adobe Illustrator 17.1.0, SVG Export Plug-In . SVG Version: 6.00 Build 0)  -->
<!DOCTYPE svg PUBLIC "-//W3C//DTD SVG 1.1//EN" "http://www.w3.org/Graphics/SVG/1.1/DTD/svg11.dtd">
<svg version="1.1" id="Layer_1" xmlns="http://www.w3.org/2000/svg" xmlns:xlink="http://www.w3.org/1999/xlink" x="0px" y="0px"
	 viewBox="0 0 112.363 96.849" enable-background="new 0 0 112.363 96.849" xml:space="preserve">
<path opacity="0.7" fill="#6D431A" d="M16.47,82.164c0.726,0.404,1.472-0.001,2.236,0.905c0.765,0.304,1.549,0.029,2.35,2.561
	c0.804,0.098,1.623,1.066,2.46,1.453c0.836-1.234,1.69-0.441,2.56,1.576c0.872,1.599,1.762,1.273,2.664,1.24
	c0.903,0.311,1.823,0.555,2.758,1.324c0.935-0.816,1.882,1.177,2.845,1.125c0.962,0.121,1.938,0.305,2.927,0.93
	c0.986,1.275,1.983,0.451,2.994,0.566c1.011,0.044,2.033,0.501,3.065,0.939c1.031,0.482,2.076,1.795,3.129,0.633
	c1.056,0.475,2.12,1.457,3.192,0.297c1.071-1.801,2.153-2.045,3.24,0.236c1.09,1.251,2.187-1.113,3.291,0.08
	c1.099,1.064,2.187,1.144,3.269-0.078c1.081-1.6,2.153-2.452,3.218-0.234c1.076-0.615,2.142,1.071,3.199-0.252
	c1.058-0.697,2.104-0.759,3.142-0.676c1.035,0.771,2.06-0.836,3.073-0.463c1.013-0.789,2.014-3.172,3.001-1.045
	c0.989,1.168,1.965,0.417,2.926-0.805c0.962-1.135,1.909-1.979,2.843-1.248c0.934,2.573,1.854,2.174,2.756,0.223
	c0.902-0.438,1.792-3.248,2.664-2.783c0.872,0.959,1.727-1.148,2.565-0.111c0.839-1.693,1.661-1.713,2.464-2.922
	c0.804-1.559,1.588-1.187,2.353-2.744c0.767-1.299,1.513,1.742,2.24-0.728c0.728-1.222,1.435-1.626,2.121-3.765
	c0.687-1.543,1.354-2.199,1.995-0.105c0.645-1.869,1.268-1.805,1.866-2.464c0.601-0.587,1.179-3.711,1.734-1.772
	c0.555-2.175,1.086-3.317,1.595-2.93c0.508,2.565,0.991-0.42,1.45-1.646c0.459-0.734,0.891-4.405,1.299-4.621
	c0.405-0.369,0.788,1.361,1.142-0.25c0.354-0.48,0.679-3.273,0.977-2.689c0.299,0.231,0.569-2.326,0.812-2.426
	c0.243-3.417,0.457,1.388,0.641-1.914c0.183-0.547,0.34-1.662,0.463-3.422c0.125-2.623,0.219,4.342,0.282-2.736
	c0.062-4.203,0.095-2.827,0.095-2.779c0,1.992-0.008,2.52-0.022,2.245c-0.017-0.487-0.039-2.158-0.07-5.003
	c-0.031,2.632-0.072,1.885-0.118,0.781c-0.044-1.7-0.099-5.144-0.16-3.498c-0.125,2.521-0.278-7.074-0.462-3.278
	c-0.185-1.002-0.396,0.156-0.642-2.074c-0.241-3.063-0.513,0.716-0.812-1.053c-0.298,1.126-0.625-2.652-0.979-4.076
	c-0.354-2.148-0.734-2.85-1.14-2.172c-0.407-2.197-0.839-2.241-1.298-2.697c-0.457-0.725-0.941-2.513-1.448-2.781
	c-0.507-2.333-1.039-1.751-1.594-1.793c-0.555,1.788-1.133-1.051-1.735-1.162c-0.602,2.213-1.223-2.962-1.869-3.082
	c-0.644-1.988-1.31-4.172-1.998-1.891c-0.688-0.057-1.396-2.366-2.124-1.986c-0.725-0.002-1.474-1.608-2.24-1.234
	c-0.765-0.024-1.549-1.716-2.353-2.236c-0.803-2.803-1.625-1.138-2.464-0.829c-0.838-1.219-1.693-2.114-2.565-2.205
	c-0.872-1.298-1.762-1.266-2.664-1.913c-0.902-1.997-1.821-1.098-2.756-0.648c-0.933,0.309-1.881-3.247-2.843-0.927
	c-0.961-0.049-1.938-4.293-2.926-1.125c-0.987,3.021-1.988,1.058-3.001-0.384c-1.014-1.127-2.038-0.932-3.073-1.124
	c-2.073-1.108-4.188,0.005-6.341-0.928c-1.064-2.583-2.137-1.479-3.218-0.233c-1.082,4.201-2.17,1.588-3.269-0.079
	c-1.104,1.985-2.201,3.681-3.291,0.08c-1.087,4.03-2.169,0.894-3.24,0.237c-2.146-2.829-4.256-0.537-6.321,0.929
	c-1.032,0.124-2.055-0.548-3.065-0.727c-1.011-0.179-2.008,0.029-2.994,2.232c-0.988,1.11-1.965,2.583-2.927,0.409
	c-0.963,0.491-1.91-1.212-2.845,1.646c-0.935,3.802-1.854,0.755-2.758,1.618c-0.902-0.473-1.792-2.225-2.664,0.946
	c-0.87-2.307-1.724-0.854-2.562-0.175c-0.836,0.328-1.654,0.935-2.458,3.206c-0.801,0.941-1.585,1.842-2.35,1.946
	c-0.765,3.145-1.511,3.336-2.236,1.52c-0.728-0.75-1.436,1.125-2.125,1.234c-0.686,0.685-1.353,1.875-1.997,2.643
	c-0.646-0.55-1.269,2.008-1.87,1.565c-0.601,1.182-1.179,2.568-1.733,2.678c-0.555,3.441-1.088,3.023-1.594,3.218
	c-0.508-0.812-0.99-1.251-1.449,1.357c-0.458-1.207-0.891,2.569-1.297,1.488c-0.406,0.246-0.786,3.065-1.14,3.381
	c-0.355,1.545-0.681,1.105-0.98,0.641c-0.298,0.358-0.569,0.55-0.811,4.488c-0.244,2.259-0.456,2.558-0.641,2.952
	c-0.185,0.194-0.339,0.289-0.462,2.4c-0.124-0.298-0.216,2.132-0.278,2.717C0.031,45.477,0,46.625,0,48.644
	c0,0.627,0.031,0.887,0.094,2.779c0.032-1.577,0.072,0.634,0.119,1.9c0.046,1.16,0.103,1.189,0.164,0.836
	c0.123,2.719,0.278,1.008,0.463,2.525c0.184,0.237,0.398,1.413,0.64,2.811c0.241,3.224,0.513,1.742,0.811,2.555
	c0.298,0.922,0.624,0.649,0.978,2.561c0.353,1.656,0.735,4.658,1.142,4.49c0.407,2.944,0.841,2.646,1.298,0.381
	c0.46,1.058,0.942,2.918,1.45,2.574c0.509,0.738,1.04,0.869,1.597,2.002c0.555,2.28,1.133,0.873,1.733,2.222
	c0.6,0.883,1.223,1.274,1.866,2.015c0.643,1.627,1.31,2.027,1.998,2.176C15.037,80.738,15.744,82.563,16.47,82.164z"/>
</svg>
