<?xml version="1.0" encoding="utf-8"?>
<!-- Generator: Adobe Illustrator 17.1.0, SVG Export Plug-In . SVG Version: 6.00 Build 0)  -->
<!DOCTYPE svg PUBLIC "-//W3C//DTD SVG 1.1//EN" "http://www.w3.org/Graphics/SVG/1.1/DTD/svg11.dtd">
<svg version="1.1" id="Layer_1" xmlns="http://www.w3.org/2000/svg" xmlns:xlink="http://www.w3.org/1999/xlink" x="0px" y="0px"
	 viewBox="0 0 119.313 119.608" enable-background="new 0 0 119.313 119.608" xml:space="preserve">
<line fill="#FFFFFF" stroke="#383838" stroke-miterlimit="10" x1="106.529" y1="13.07" x2="40.922" y2="78.678"/>
<line fill="#FFFFFF" stroke="#383838" stroke-miterlimit="10" x1="118.904" y1="20.671" x2="84.613" y2="54.962"/>
<line fill="#FFFFFF" stroke="#383838" stroke-miterlimit="10" x1="118.959" y1="40.445" x2="82.85" y2="75.778"/>
<line fill="#FFFFFF" stroke="#383838" stroke-miterlimit="10" x1="98.929" y1="77.08" x2="55.405" y2="119.195"/>
<line fill="#FFFFFF" stroke="#383838" stroke-miterlimit="10" x1="50.291" y1="88.585" x2="19.017" y2="119.195"/>
<line fill="#FFFFFF" stroke="#383838" stroke-miterlimit="10" x1="35.033" y1="85.362" x2="0.41" y2="119.25"/>
<line fill="#FFFFFF" stroke="#383838" stroke-miterlimit="10" x1="118.959" y1="73.225" x2="88.239" y2="103.945"/>
<line fill="#FFFFFF" stroke="#383838" stroke-miterlimit="10" x1="77.167" y1="80.656" x2="55.405" y2="102.418"/>
<line fill="#FFFFFF" stroke="#383838" stroke-miterlimit="10" x1="78.725" y1="60.344" x2="56.237" y2="82.69"/>
<line fill="#FFFFFF" stroke="#383838" stroke-miterlimit="10" x1="118.904" y1="0.893" x2="111.985" y2="7.769"/>
<line fill="#FFFFFF" stroke="#383838" stroke-miterlimit="10" x1="0.742" y1="98.882" x2="35.033" y2="64.591"/>
<line fill="#FFFFFF" stroke="#383838" stroke-miterlimit="10" x1="69.356" y1="30.968" x2="100.63" y2="0.357"/>
<line fill="#FFFFFF" stroke="#383838" stroke-miterlimit="10" x1="40.922" y1="59.209" x2="63.409" y2="36.862"/>
<line fill="#FFFFFF" stroke="#383838" stroke-miterlimit="10" x1="100.63" y1="107.594" x2="89.378" y2="119.195"/>
<line fill="#FFFFFF" stroke="#383838" stroke-miterlimit="10" x1="49.667" y1="107.166" x2="38.415" y2="118.767"/>
<line fill="#FFFFFF" stroke="#383838" stroke-miterlimit="10" x1="0.35" y1="79.445" x2="36.459" y2="44.113"/>
<line fill="#FFFFFF" stroke="#383838" stroke-miterlimit="10" x1="42.142" y1="39.234" x2="63.903" y2="17.472"/>
<line fill="#FFFFFF" stroke="#383838" stroke-miterlimit="10" x1="68.642" y1="12.725" x2="79.894" y2="1.123"/>
<line fill="#FFFFFF" stroke="#383838" stroke-miterlimit="10" x1="82.795" y1="108.739" x2="72.653" y2="119.195"/>
<line fill="#FFFFFF" stroke="#383838" stroke-miterlimit="10" x1="118.904" y1="89.049" x2="105.066" y2="103.317"/>
<line fill="#FFFFFF" stroke="#383838" stroke-miterlimit="10" x1="118.904" y1="57.956" x2="105.066" y2="72.225"/>
<line fill="#FFFFFF" stroke="#383838" stroke-miterlimit="10" x1="20.718" y1="42.973" x2="64.241" y2="0.857"/>
<line fill="#FFFFFF" stroke="#383838" stroke-miterlimit="10" x1="0.688" y1="46.828" x2="31.407" y2="16.107"/>
<line fill="#FFFFFF" stroke="#383838" stroke-miterlimit="10" x1="19.017" y1="12.459" x2="30.269" y2="0.857"/>
<line fill="#FFFFFF" stroke="#383838" stroke-miterlimit="10" x1="36.852" y1="11.314" x2="46.993" y2="0.857"/>
<line fill="#FFFFFF" stroke="#383838" stroke-miterlimit="10" x1="0.742" y1="31.004" x2="14.58" y2="16.736"/>
<line fill="#FFFFFF" stroke="#383838" stroke-miterlimit="10" x1="0.742" y1="62.096" x2="14.58" y2="47.828"/>
</svg>
