<?xml version="1.0" encoding="utf-8"?>
<!-- Generator: Adobe Illustrator 17.1.0, SVG Export Plug-In . SVG Version: 6.00 Build 0)  -->
<!DOCTYPE svg PUBLIC "-//W3C//DTD SVG 1.1//EN" "http://www.w3.org/Graphics/SVG/1.1/DTD/svg11.dtd">
<svg version="1.1" id="Layer_1" xmlns="http://www.w3.org/2000/svg" xmlns:xlink="http://www.w3.org/1999/xlink" x="0px" y="0px"
	 viewBox="0 0 240.99 240.991" enable-background="new 0 0 240.99 240.991" xml:space="preserve">
<circle fill="none" stroke="#000000" stroke-miterlimit="10" cx="120.495" cy="120.496" r="95.995"/>
<circle opacity="0.2" fill="#FFFFFF" stroke="#000000" stroke-miterlimit="10" cx="120.495" cy="120.496" r="111.995"/>
<circle fill="none" stroke="#000000" stroke-miterlimit="10" cx="120.495" cy="120.496" r="119.995"/>
<circle fill="none" stroke="#000000" stroke-miterlimit="10" cx="120.495" cy="120.496" r="57.17"/>
<circle fill="none" stroke="#000000" stroke-miterlimit="10" cx="120.495" cy="120.496" r="44.17"/>
<circle fill="none" stroke="#000000" stroke-miterlimit="10" cx="120.495" cy="120.496" r="37.887"/>
<line fill="none" stroke="#000000" stroke-miterlimit="10" x1="120.939" y1="62.883" x2="120.939" y2="75.883"/>
<line fill="none" stroke="#000000" stroke-miterlimit="10" x1="120.939" y1="164.225" x2="120.939" y2="177.225"/>
<line fill="none" stroke="#000000" stroke-miterlimit="10" x1="76.769" y1="120.054" x2="63.769" y2="120.054"/>
<line fill="none" stroke="#000000" stroke-miterlimit="10" x1="165.108" y1="120.054" x2="178.108" y2="120.054"/>
<line fill="none" stroke="#000000" stroke-miterlimit="10" x1="151.795" y1="88.461" x2="160.662" y2="78.943"/>
<line fill="none" stroke="#000000" stroke-miterlimit="10" x1="88.227" y1="149.734" x2="78.872" y2="158.764"/>
<line fill="none" stroke="#000000" stroke-miterlimit="10" x1="91.999" y1="86.7" x2="82.263" y2="77.955"/>
<line fill="none" stroke="#000000" stroke-miterlimit="10" x1="153.65" y1="149.734" x2="162.843" y2="158.927"/>
<line fill="none" stroke="#000000" stroke-miterlimit="10" x1="120.496" y1="24.5" x2="120.496" y2="8.5"/>
<line fill="none" stroke="#000000" stroke-miterlimit="10" x1="120.496" y1="216.491" x2="120.496" y2="232.491"/>
<line fill="none" stroke="#000000" stroke-miterlimit="10" x1="216.49" y1="120.496" x2="232.49" y2="120.496"/>
<line fill="none" stroke="#000000" stroke-miterlimit="10" x1="24.499" y1="120.496" x2="8.499" y2="120.496"/>
</svg>
